<svg xmlns="http://www.w3.org/2000/svg" viewBox="0 0 96 144" fill="none" stroke="currentColor" stroke-width="2" stroke-linecap="round" stroke-linejoin="round">
  <!-- Row 1: home, sphero, reverse_sphero, sagitta -->
  <g transform="translate(0, 0)">
    <path d="M3 9l9-7 9 7v11a2 2 0 0 1-2 2H5a2 2 0 0 1-2-2z"/>
    <polyline points="9 22 9 12 15 12 15 22"/>
  </g>
  <g transform="translate(24, 0)">
    <path d="M4 18c0-7 4-12 8-12s8 5 8 12"/>
    <circle cx="12" cy="18" r="2"/>
    <line x1="12" y1="6" x2="12" y2="16"/>
    <line x1="8" y1="8" x2="12" y2="6"/>
    <line x1="16" y1="8" x2="12" y2="6"/>
  </g>
  <g transform="translate(48, 0)">
    <path d="M4 6c0 7 4 12 8 12s8-5 8-12"/>
    <circle cx="12" cy="6" r="2"/>
    <line x1="12" y1="18" x2="12" y2="8"/>
    <line x1="8" y1="16" x2="12" y2="18"/>
    <line x1="16" y1="16" x2="12" y2="18"/>
  </g>
  <g transform="translate(72, 0)">
    <path d="M3 8c0 8 4.5 12 9 12s9-4 9-12"/>
    <line x1="3" y1="8" x2="21" y2="8"/>
    <line x1="12" y1="8" x2="12" y2="20"/>
    <line x1="10" y1="18" x2="12" y2="20"/>
    <line x1="14" y1="18" x2="12" y2="20"/>
  </g>

  <!-- Row 2: sine_table, mpcc_hyperbolic, spray_silvering, stig -->
  <g transform="translate(0, 24)">
    <line x1="4" y1="20" x2="20" y2="20"/>
    <line x1="4" y1="20" x2="4" y2="4"/>
    <path d="M4 12 Q8 4 12 12 T20 12"/>
    <circle cx="12" cy="12" r="1.5"/>
  </g>
  <g transform="translate(24, 24)">
    <path d="M4 4c0 6 3 16 8 16s8-10 8-16"/>
    <ellipse cx="12" cy="4" rx="8" ry="2"/>
    <line x1="12" y1="6" x2="12" y2="14"/>
    <circle cx="12" cy="16" r="1.5"/>
  </g>
  <g transform="translate(48, 24)">
    <rect x="6" y="10" width="6" height="12" rx="1"/>
    <path d="M8 10V7a2 2 0 0 1 2-2h0a2 2 0 0 1 2 2v3"/>
    <circle cx="17" cy="6" r="1"/>
    <circle cx="19" cy="9" r="1"/>
    <circle cx="16" cy="10" r="1"/>
    <circle cx="20" cy="5" r="1"/>
    <circle cx="18" cy="12" r="1"/>
  </g>
  <g transform="translate(72, 24)">
    <ellipse cx="12" cy="12" rx="9" ry="6"/>
    <ellipse cx="12" cy="12" rx="6" ry="9"/>
    <circle cx="12" cy="12" r="2"/>
  </g>

  <!-- Row 3: annular_ring, sagitta_fringes, pressure, coma_free -->
  <g transform="translate(0, 48)">
    <circle cx="12" cy="12" r="10"/>
    <circle cx="12" cy="12" r="6"/>
    <circle cx="12" cy="12" r="2"/>
  </g>
  <g transform="translate(24, 48)">
    <path d="M3 6c3 0 4.5 2 6 2s3-2 6-2 4.5 2 6 2"/>
    <path d="M3 11c3 0 4.5 2 6 2s3-2 6-2 4.5 2 6 2"/>
    <path d="M3 16c3 0 4.5 2 6 2s3-2 6-2 4.5 2 6 2"/>
  </g>
  <g transform="translate(48, 48)">
    <path d="M12 2v4"/>
    <path d="M12 18v4"/>
    <rect x="6" y="6" width="12" height="12" rx="1"/>
    <line x1="9" y1="10" x2="15" y2="10"/>
    <line x1="9" y1="14" x2="15" y2="14"/>
  </g>
  <g transform="translate(72, 48)">
    <circle cx="8" cy="12" r="4"/>
    <path d="M12 10c2-3 5-5 9-6"/>
    <path d="M12 12c2 0 5 0 9-1"/>
    <path d="M12 14c2 3 5 5 9 6"/>
  </g>

  <!-- Row 4: foucault_la, hardware, menu -->
  <g transform="translate(0, 72)">
    <circle cx="12" cy="12" r="10"/>
    <path d="M12 2c0 5-2 10 0 20"/>
    <path d="M7 3.5c0 4-2 9 0 17"/>
    <path d="M17 3.5c0 4 2 9 0 17"/>
    <line x1="2" y1="12" x2="22" y2="12"/>
  </g>
  <g transform="translate(24, 72)">
    <path d="M14.7 6.3a1 1 0 0 0 0 1.4l1.6 1.6a1 1 0 0 0 1.4 0l3.77-3.77a6 6 0 0 1-7.94 7.94l-6.91 6.91a2.12 2.12 0 0 1-3-3l6.91-6.91a6 6 0 0 1 7.94-7.94l-3.76 3.76z"/>
  </g>
  <g transform="translate(48, 72)">
    <path d="M4 6h16M4 12h16M4 18h16"/>
  </g>
</svg>
