<svg xmlns="http://www.w3.org/2000/svg" viewBox="0 0 96 144" font-family="monospace" font-size="3" text-anchor="middle">
  <!-- Grid lines -->
  <g stroke="#ccc" stroke-width="0.5" fill="none">
    <rect x="0" y="0" width="96" height="144"/>
    <line x1="24" y1="0" x2="24" y2="144"/>
    <line x1="48" y1="0" x2="48" y2="144"/>
    <line x1="72" y1="0" x2="72" y2="144"/>
    <line x1="0" y1="24" x2="96" y2="24"/>
    <line x1="0" y1="48" x2="96" y2="48"/>
    <line x1="0" y1="72" x2="96" y2="72"/>
    <line x1="0" y1="96" x2="96" y2="96"/>
    <line x1="0" y1="120" x2="96" y2="120"/>
  </g>

  <!-- Row 1 -->
  <text x="12" y="10" fill="#999">[1,1]</text>
  <text x="12" y="16" fill="#333">home</text>

  <text x="36" y="10" fill="#999">[2,1]</text>
  <text x="36" y="16" fill="#333">sphero</text>

  <text x="60" y="10" fill="#999">[3,1]</text>
  <text x="60" y="16" fill="#333">reverse_sphero</text>

  <text x="84" y="10" fill="#999">[4,1]</text>
  <text x="84" y="16" fill="#333">sagitta</text>

  <!-- Row 2 -->
  <text x="12" y="34" fill="#999">[1,2]</text>
  <text x="12" y="40" fill="#333">sine_table</text>

  <text x="36" y="34" fill="#999">[2,2]</text>
  <text x="36" y="40" fill="#333">mpcc_hyperbolic</text>

  <text x="60" y="34" fill="#999">[3,2]</text>
  <text x="60" y="40" fill="#333">spray_silvering</text>

  <text x="84" y="34" fill="#999">[4,2]</text>
  <text x="84" y="40" fill="#333">stig</text>

  <!-- Row 3 -->
  <text x="12" y="58" fill="#999">[1,3]</text>
  <text x="12" y="64" fill="#333">annular_ring</text>

  <text x="36" y="58" fill="#999">[2,3]</text>
  <text x="36" y="64" fill="#333">sagitta_fringes</text>

  <text x="60" y="58" fill="#999">[3,3]</text>
  <text x="60" y="64" fill="#333">pressure</text>

  <text x="84" y="58" fill="#999">[4,3]</text>
  <text x="84" y="64" fill="#333">coma_free</text>

  <!-- Row 4 -->
  <text x="12" y="82" fill="#999">[1,4]</text>
  <text x="12" y="88" fill="#333">foucault_la</text>

  <text x="36" y="82" fill="#999">[2,4]</text>
  <text x="36" y="88" fill="#333">hardware</text>

  <text x="60" y="82" fill="#999">[3,4]</text>
  <text x="60" y="88" fill="#333">menu</text>

  <text x="84" y="82" fill="#999">[4,4]</text>
  <text x="84" y="88" fill="#666">(empty)</text>

  <!-- Row 5 -->
  <text x="12" y="106" fill="#999">[1,5]</text>
  <text x="12" y="112" fill="#666">(empty)</text>

  <text x="36" y="106" fill="#999">[2,5]</text>
  <text x="36" y="112" fill="#666">(empty)</text>

  <text x="60" y="106" fill="#999">[3,5]</text>
  <text x="60" y="112" fill="#666">(empty)</text>

  <text x="84" y="106" fill="#999">[4,5]</text>
  <text x="84" y="112" fill="#666">(empty)</text>

  <!-- Row 6 -->
  <text x="12" y="130" fill="#999">[1,6]</text>
  <text x="12" y="136" fill="#666">(empty)</text>

  <text x="36" y="130" fill="#999">[2,6]</text>
  <text x="36" y="136" fill="#666">(empty)</text>

  <text x="60" y="130" fill="#999">[3,6]</text>
  <text x="60" y="136" fill="#666">(empty)</text>

  <text x="84" y="130" fill="#999">[4,6]</text>
  <text x="84" y="136" fill="#666">(empty)</text>
</svg>
