<?xml version="1.0" encoding="UTF-8"?>
<svg xmlns="http://www.w3.org/2000/svg" version="1.1" viewBox="0 0 96 144">
  <!-- Generator: Adobe Illustrator 29.8.2, SVG Export Plug-In . SVG Version: 2.1.1 Build 3)  -->
  <defs>
    <style>
      .st0 {
        fill: #063;
      }

      .st1 {
        fill: none;
        stroke: #000;
        stroke-linecap: round;
        stroke-linejoin: round;
        stroke-width: 2px;
      }

      .st2 {
        fill: #fff;
      }

      .st3 {
        fill: #1571ff;
      }

      .st4 {
        fill: #e30613;
      }

      .st5 {
        display: none;
      }
    </style>
  </defs>
  <g id="Calque_1" class="st5">
    <g>
      <path class="st1" d="M3,9L12,2l9,7v11c0,1.1-.9,2-2,2H5c-1.1,0-2-.9-2-2v-11Z"/>
      <polyline class="st1" points="9 22 9 12 15 12 15 22"/>
    </g>
    <g>
      <path class="st1" d="M28,18c0-7,4-12,8-12s8,5,8,12"/>
      <circle class="st1" cx="36" cy="18" r="2"/>
      <line class="st1" x1="36" y1="6" x2="36" y2="16"/>
      <line class="st1" x1="32" y1="8" x2="36" y2="6"/>
      <line class="st1" x1="40" y1="8" x2="36" y2="6"/>
    </g>
    <g>
      <path class="st1" d="M52,6c0,7,4,12,8,12s8-5,8-12"/>
      <circle class="st1" cx="60" cy="6" r="2"/>
      <line class="st1" x1="60" y1="18" x2="60" y2="8"/>
      <line class="st1" x1="56" y1="16" x2="60" y2="18"/>
      <line class="st1" x1="64" y1="16" x2="60" y2="18"/>
    </g>
    <g>
      <path class="st1" d="M75,8c0,8,4.5,12,9,12s9-4,9-12"/>
      <line class="st1" x1="75" y1="8" x2="93" y2="8"/>
      <line class="st1" x1="84" y1="8" x2="84" y2="20"/>
      <line class="st1" x1="82" y1="18" x2="84" y2="20"/>
      <line class="st1" x1="86" y1="18" x2="84" y2="20"/>
    </g>
    <g>
      <line class="st1" x1="4" y1="44" x2="20" y2="44"/>
      <line class="st1" x1="4" y1="44" x2="4" y2="28"/>
      <path class="st1" d="M4,36c2.67-5.33,5.33-5.33,8,0,2.67,5.33,5.33,5.33,8,0"/>
      <circle class="st1" cx="12" cy="36" r="1.5"/>
    </g>
    <g>
      <path class="st1" d="M28,28c0,6,3,16,8,16s8-10,8-16"/>
      <ellipse class="st1" cx="36" cy="28" rx="8" ry="2"/>
      <line class="st1" x1="36" y1="30" x2="36" y2="38"/>
      <circle class="st1" cx="36" cy="40" r="1.5"/>
    </g>
    <g>
      <rect class="st1" x="54" y="34" width="6" height="12" rx="1" ry="1"/>
      <path class="st1" d="M56,34v-3c0-1.1.9-2,2-2h0c1.1,0,2,.9,2,2v3"/>
      <circle class="st1" cx="65" cy="30" r="1"/>
      <circle class="st1" cx="67" cy="33" r="1"/>
      <circle class="st1" cx="64" cy="34" r="1"/>
      <circle class="st1" cx="68" cy="29" r="1"/>
      <circle class="st1" cx="66" cy="36" r="1"/>
    </g>
    <g>
      <ellipse class="st1" cx="84" cy="36" rx="9" ry="6"/>
      <ellipse class="st1" cx="84" cy="36" rx="6" ry="9"/>
      <circle class="st1" cx="84" cy="36" r="2"/>
    </g>
    <g>
      <circle class="st1" cx="12" cy="60" r="10"/>
      <circle class="st1" cx="12" cy="60" r="6"/>
      <circle class="st1" cx="12" cy="60" r="2"/>
    </g>
    <g>
      <path class="st1" d="M27,54c3,0,4.5,2,6,2s3-2,6-2,4.5,2,6,2"/>
      <path class="st1" d="M27,59c3,0,4.5,2,6,2s3-2,6-2,4.5,2,6,2"/>
      <path class="st1" d="M27,64c3,0,4.5,2,6,2s3-2,6-2,4.5,2,6,2"/>
    </g>
    <g>
      <path class="st1" d="M60,50v4"/>
      <path class="st1" d="M60,66v4"/>
      <rect class="st1" x="54" y="54" width="12" height="12" rx="1" ry="1"/>
      <line class="st1" x1="57" y1="58" x2="63" y2="58"/>
      <line class="st1" x1="57" y1="62" x2="63" y2="62"/>
    </g>
    <g>
      <circle class="st1" cx="80" cy="60" r="4"/>
      <path class="st1" d="M84,58c2-3,5-5,9-6"/>
      <path class="st1" d="M84,60c2,0,5,0,9-1"/>
      <path class="st1" d="M84,62c2,3,5,5,9,6"/>
    </g>
    <g>
      <circle class="st1" cx="12" cy="84" r="10"/>
      <path class="st1" d="M12,74c0,5-2,10,0,20"/>
      <path class="st1" d="M7,75.5c0,4-2,9,0,17"/>
      <path class="st1" d="M17,75.5c0,4,2,9,0,17"/>
      <line class="st1" x1="2" y1="84" x2="22" y2="84"/>
    </g>
    <path class="st1" d="M38.7,78.3c-.38.39-.38,1.01,0,1.4l1.6,1.6c.39.38,1.01.38,1.4,0l3.77-3.77c1.37,3.02.03,6.57-2.99,7.94-1.57.71-3.37.71-4.95,0l-6.91,6.91c-.83.83-2.17.83-3,0-.83-.83-.83-2.17,0-3l6.91-6.91c-1.37-3.02-.03-6.57,2.99-7.94,1.57-.71,3.37-.71,4.95,0l-3.76,3.76h0Z"/>
    <path class="st1" d="M52,78h16M52,84h16M52,90h16"/>
  </g>
  <g id="Calque_2">
    <g>
      <path d="M10.04,73.78c3.45-.27,5.6,1.09,6.94,4.21s1.25,5.15-.97,7.68-5.48,3.21-8.56,1.65c-6.02-3.04-3.95-13.03,2.58-13.53ZM11.46,74.36h-.5s0,.3,0,.3l.5-.2v-.1ZM10.15,74.47l-1.49.09c-.1.32.59.17.35.5-.19.26-.91.16-1.19.21-.93.16-1.27.86-1.81,1.5-.14.16-.36.22-.5.4-.5.62-.85,2.15-.95,2.95-.37,2.93.57,5.32,3.3,6.61.55.26,2.09.78,2.66.75.36-.02.13-.29.15-.45.09-.94.11-1.7-.01-2.65-1.26-.13-2.51-1.13-2.92-2.34-.55-1.64.78-3.95,2.53-4.22l.08-.12c-.01-.44.03-3.08-.2-3.23ZM15.01,76.01c-.15-.14-.19-.28-.41-.44-.33-.24-1.87-1.08-2.21-1.1l-1.03,1.04c-.03.14,0,.19.15.15.25-.07,1.12-.84,1.25-.7,0,.2.04.41-.05.6-.11.24-.66.49-.7.8.65-.22,1.1-.94,1.85-.9.21.58-.36.92-.7,1.3l1.7-.6c.09.53-.06.74-.4,1.1l1.3-.2c.19-.19-.61-.9-.76-1.04ZM12.46,76.76l-1.4.75c.09.19.56.21.7.11.09-.06.08-.27.16-.34.17-.18.44-.26.54-.51ZM13.56,77.26l-.8.35c.62.27,1.05.63,1.35,1.25.04-.27,1.12-.9.95-1.1-.58.2-1.83.5-1.5-.5ZM17.05,80.15c.26-.3-.74-2.19-.93-2.59l-.85.9c.38.14.93-.47,1.01.05.05.32-.15.51-.31.75,1.43-.64.64.76.1,1.3l.98-.41ZM13.43,78.79c-.4-.44-2.02-1-2.35-.36-.28.55.05,2.47.08,3.18s-.03,1.37,0,2.06c1.45.01,3.01-1.83,2.91-3.25-.02-.29-.44-1.4-.64-1.62ZM15.17,79.16c-.35.02-.62.05-.9-.2l.2.9c.23.06.17-.06.23-.13.16-.18.32-.38.47-.57ZM15.77,80.06c-.41.07-.77.46-1.2.2l-.1,1.2c.08.09,1.38-1.33,1.3-1.4ZM10.46,80.86l-.05-.3-.25.3h.3ZM17.36,81.86l-.2-1.2c-.19.73-1.13,1.03-1.2,1.8.55-.05.82-.68,1.4-.6ZM8.46,80.86c-.38-.11-.21.89-.05.9l.45-.35c-.36-.09-.44-.15-.4-.55ZM15.46,82.26l.8-1.2c-.17.15-.88.55-.95.69-.01.03,0,.54.15.51ZM10.46,82.06l.1-.4-.3.25v.15s.2,0,.2,0ZM9.48,82.75c-.18-.28-.08-.5-.02-.79l-.8.3c-.14.15.96,1.29,1.3,1.05l-.1-.55h-.38ZM14.66,82.06l-.41-.06-.19.56c.08.08.74-.37.6-.5ZM16.67,83.26c.38.09.47-.32.5-.6l-.5.6ZM16.27,82.96c-.22-.21-1.24,1.33-1.2,1.6l1.2-1.6ZM14.86,83.76c-.29-.06-.58.46-.25.6l.25-.6ZM12.46,84.06l-1.16.39-.04.81,1.2-1.2ZM15.97,84.66c.18-.11.42-.29.4-.5-.18.11-.42.29-.4.5ZM12.56,85.26l1-.75c.02-.52-1.13.61-1,.75ZM14.46,84.66c-.12-.13-1.1.95-1.2,1.1l.95-.6.25-.5ZM11.66,85.66l-.3-.3v.5s.3-.2.3-.2ZM12.56,85.87c-.48.06-.68.74-1.2.4v1.1s.4,0,.4,0c-.64-.7.53-.9.8-1.5ZM12.66,86.87l-.6.4c.32.02.52-.09.6-.4Z"/>
      <path d="M10.92,89.57c.85.16.52,1.02.54,1.55s.37,1.39-.24,1.66c-.42,0-.22-1.22-.25-1.55-.03-.29-.38-1.55-.05-1.65Z"/>
      <path d="M18.77,89.67c.24.48,0,.9,0,1.35,0,.39.13,1.24.02,1.51-.05.11.04.15-.16.15-.63-.02-.31-.52-.34-.96-.05-.64-.45-1.98.49-2.05Z"/>
      <path d="M15.35,92.55l-.39.08c-.25-.17-.09-1.27-.09-1.62,0-.56-.32-.8.35-1.24.65.43.21.71.16,1.15-.06.52.05,1.1-.02,1.63Z"/>
      <path class="st2" d="M10.15,74.47c.23.14.19,2.78.2,3.23l-.08.12c-1.75.27-3.07,2.58-2.53,4.22.4,1.2,1.66,2.21,2.92,2.34.12.95.1,1.7.01,2.65-.02.17.21.43-.15.45-.57.04-2.1-.49-2.66-.75-2.72-1.29-3.67-3.68-3.3-6.61.1-.8.45-2.33.95-2.95.14-.18.37-.24.5-.4.54-.64.88-1.34,1.81-1.5.29-.05,1,.06,1.19-.21.24-.33-.46-.18-.35-.5l1.49-.09Z"/>
      <path class="st2" d="M13.43,78.79c.2.22.62,1.33.64,1.62.1,1.42-1.46,3.27-2.91,3.25-.03-.68.04-1.37,0-2.06s-.37-2.63-.08-3.18c.33-.63,1.95-.08,2.35.36Z"/>
      <path class="st2" d="M15.01,76.01c.15.14.95.85.76,1.04l-1.3.2c.34-.36.49-.57.4-1.1l-1.7.6c.34-.38.91-.72.7-1.3-.75-.04-1.19.67-1.85.9.04-.32.59-.57.7-.8.09-.19.05-.4.05-.6-.13-.14-1,.63-1.25.7-.14.04-.18,0-.15-.15l1.03-1.04c.34.02,1.88.86,2.21,1.1.21.16.26.3.41.44Z"/>
      <path class="st2" d="M17.05,80.15l-.98.41c.54-.54,1.33-1.94-.1-1.3.15-.24.35-.43.31-.75-.08-.53-.63.09-1.01-.05l.85-.9c.2.39,1.2,2.29.93,2.59Z"/>
      <path class="st2" d="M13.56,77.26c-.33,1,.92.7,1.5.5.17.2-.91.83-.95,1.1-.3-.62-.73-.98-1.35-1.25l.8-.35Z"/>
      <path class="st2" d="M17.36,81.86c-.58-.07-.85.56-1.4.6.08-.77,1.02-1.07,1.2-1.8l.2,1.2Z"/>
      <path class="st2" d="M9.48,82.75h.38s.1.57.1.57c-.34.23-1.44-.9-1.3-1.05l.8-.3c-.06.29-.16.51.02.79Z"/>
      <path class="st2" d="M15.77,80.06c.08.07-1.22,1.49-1.3,1.4l.1-1.2c.43.26.79-.13,1.2-.2Z"/>
      <polygon class="st2" points="12.46 84.06 11.26 85.26 11.31 84.46 12.46 84.06"/>
      <path class="st2" d="M12.56,85.87c-.27.59-1.44.8-.8,1.5h-.4s0-1.1,0-1.1c.52.34.72-.34,1.2-.4Z"/>
      <path class="st2" d="M12.46,76.76c-.1.25-.37.33-.54.51-.07.07-.06.28-.16.34-.15.11-.61.09-.7-.11l1.4-.75Z"/>
      <path class="st2" d="M15.17,79.16c-.15.19-.31.39-.47.57-.06.07,0,.19-.23.13l-.2-.9c.28.25.55.22.9.2Z"/>
      <path class="st2" d="M16.27,82.96l-1.2,1.6c-.04-.27.98-1.81,1.2-1.6Z"/>
      <path class="st2" d="M14.46,84.66l-.25.5-.95.6c.1-.15,1.08-1.23,1.2-1.1Z"/>
      <path class="st2" d="M15.46,82.26c-.15.03-.16-.48-.15-.51.07-.15.78-.54.95-.69l-.8,1.2Z"/>
      <path class="st2" d="M12.56,85.26c-.13-.14,1.01-1.27,1-.75l-1,.75Z"/>
      <path class="st2" d="M8.46,80.86c-.04.4.04.46.4.55l-.45.35c-.16,0-.33-1,.05-.9Z"/>
      <path class="st2" d="M14.66,82.06c.14.13-.52.58-.6.5l.19-.56.41.06Z"/>
      <path class="st2" d="M14.86,83.76l-.25.6c-.33-.14-.04-.66.25-.6Z"/>
      <path class="st2" d="M12.66,86.87c-.08.31-.28.42-.6.4l.6-.4Z"/>
      <path class="st2" d="M16.67,83.26l.5-.6c-.03.28-.12.69-.5.6Z"/>
      <polygon class="st2" points="11.46 74.36 11.46 74.45 10.96 74.66 10.96 74.36 11.46 74.36"/>
      <path class="st2" d="M15.97,84.66c-.03-.21.22-.39.4-.5.03.21-.22.39-.4.5Z"/>
      <polygon class="st2" points="11.66 85.66 11.36 85.86 11.36 85.36 11.66 85.66"/>
      <polygon class="st2" points="10.46 82.06 10.26 82.06 10.26 81.91 10.56 81.66 10.46 82.06"/>
      <polygon class="st2" points="10.46 80.86 10.16 80.86 10.41 80.56 10.46 80.86"/>
    </g>
    <g>
      <path d="M42.98,55.5c1.25,1.4.09,3.07-.86,4.25.16.12,3.31-1.15,3.71-1.39.21-.13.3-.51.78-.13l-.41,4.27c.41.82-.03,1.72-.31,2.52-1.92-.3-3.88-.11-5.82-.18-1.12-.04-2.27-.28-3.39-.3-2.53-.05-5.56.44-8.04-.02-.23-.04-.58-.28-.71-.28-.03,0-.21.34-.45.3-.21-.42,0-.75,0-1.14.02-.79.02-5.01.28-5.37.1-.14.57.05.52-.45l.32.02c.63.91,1.54,1.31,2.55,1.66-.62-1.43-.79-2.92.25-4.18.64-.78,1.79-1.51,2.74-1.84,1.12-.39,3.02-.24,4.22-.04s3.82,1.43,4.61,2.31ZM34.46,53.67l-.96.29c-.23.16.11.53-.13.86-.16.21-.71-.08-.79.2-.25.9,1.15,1.53,1.19,2.38.03.62-.71,1.66-1.4,1.64.92.76,2.56.15,3.07-.87.09-.67-2.18-1.9-1.96-3.34.07-.43.7-.86.98-1.17ZM36.65,53.77c-.81-.07-1.53.03-2.14.6-1.32,1.22,1.67,2.44,1.54,3.82-.05.57-.51.94-.9,1.3l-1.59.55c1.39.34,2.85.38,4.28.4v-.46c2.33-.62.38-2-.02-3.16-.22-.64-.17-1.16.08-1.78l1.93-.59c.21-.22-.68-.5-.85-.49-.15,0-.39.21-.64.24-.77.12-1.52.05-2.19.59-1.26,1.01.8,2.01,1.21,2.86.24.5.32,1.53-.06,1.97-.29.34-1.85.91-1.94.33-.09-.54,1.48-.09,1.66-1.11.25-1.37-1.75-1.7-1.87-3.06-.08-.93.48-1.48,1.28-1.82.14-.06.27.06.22-.22ZM41.23,54.97c-.65-.55-1.02-.02-1.69.25s-1.45.07-1.23,1.03c.28,1.17,2.48,3.31.23,4-.28.27,1.47-.02,1.59,0-.37-.67.47-.69.64-1.1.35-.82-.95-1.68-.89-2.6.02-.26.18-.63.34-.83l1-.74ZM31.96,55.27c-.86.33-.92,3.36-.16,3.38.46-.06,1.3-.55,1.35-1.05.06-.61-1.42-1.53-1.2-2.33ZM41.85,56.19c.07-.12.67-.25.67-.37-.55-.27-1.14-.34-1.64.05-.97.75.09,1.48.37,2.22.31.81.2,1.28-.42,1.86.33-.03.88-.54,1.04-.8s.07-.35.13-.56c.03-.1.17-.19.2-.31.1-.39-.75-1.42-.36-2.09ZM43.02,56.56c-.2.09-.62-.09-.69.16l.39,1.03c.15-.03.25-.45.27-.57.03-.21.03-.41.02-.62ZM28.38,58.16l-.2.05c-.1,1.87-.25,3.75-.2,5.63.36-.22.69.05,1.05.09,2.84.33,5.79-.09,8.66,0,1.38.04,2.79.27,4.17.31,1.2.03,2.45-.01,3.64-.05.5-1.55.26-3.39.39-5.03-.13-.14-3.18,1.08-3.61,1.22s-.96.18-1.37.32c-.45.15-.87.49-1.35.64-1.7.53-5.14-.1-6.83-.72-1.4-.52-3.07-1.11-4.17-2.1-.14-.13-.18-.34-.19-.35Z"/>
      <path class="st2" d="M28.38,58.16s.05.23.19.35c1.1.99,2.77,1.59,4.17,2.1,1.69.63,5.13,1.25,6.83.72.48-.15.9-.49,1.35-.64.41-.14.94-.17,1.37-.32s3.47-1.36,3.61-1.22c-.14,1.65.1,3.48-.39,5.03-1.19.04-2.44.08-3.64.05-1.38-.04-2.8-.26-4.17-.31-2.87-.09-5.82.32-8.66,0-.37-.04-.69-.31-1.05-.09-.06-1.88.09-3.75.2-5.63l.2-.05Z"/>
      <path class="st2" d="M36.65,53.77c.05.29-.07.16-.22.22-.79.34-1.35.89-1.28,1.82.11,1.37,2.12,1.69,1.87,3.06-.18,1.02-1.75.56-1.66,1.11.1.58,1.65.01,1.94-.33.38-.44.3-1.47.06-1.97-.41-.86-2.47-1.86-1.21-2.86.68-.54,1.42-.47,2.19-.59.24-.04.49-.24.64-.24.17,0,1.06.26.85.49l-1.93.59c-.25.61-.3,1.14-.08,1.78.4,1.16,2.36,2.54.01,3.16v.46c-1.42-.02-2.88-.06-4.27-.4l1.59-.55c.39-.36.84-.73.9-1.3.13-1.38-2.86-2.6-1.54-3.82.61-.56,1.33-.66,2.14-.6Z"/>
      <path class="st2" d="M41.23,54.97l-1,.74c-.16.2-.33.58-.34.83-.06.92,1.24,1.78.89,2.6-.17.4-1.01.43-.64,1.1-.12-.02-1.87.27-1.59,0,2.25-.69.04-2.83-.23-4-.23-.96.57-.77,1.23-1.03s1.04-.8,1.69-.25Z"/>
      <path class="st2" d="M34.46,53.67c-.28.31-.91.74-.98,1.17-.22,1.44,2.05,2.67,1.96,3.34-.51,1.02-2.15,1.64-3.07.87.7.02,1.43-1.03,1.4-1.64-.04-.85-1.43-1.48-1.19-2.38.08-.28.63.02.79-.2.24-.33-.09-.71.13-.86l.96-.29Z"/>
      <path class="st2" d="M41.85,56.19c-.39.67.46,1.7.36,2.09-.03.11-.18.21-.2.31-.06.21.03.3-.13.56s-.71.77-1.04.8c.62-.58.73-1.06.42-1.86-.28-.74-1.34-1.47-.37-2.22.5-.39,1.09-.32,1.64-.05,0,.12-.6.26-.67.37Z"/>
      <path class="st2" d="M31.96,55.27c-.22.8,1.26,1.72,1.2,2.33-.05.5-.89.99-1.35,1.05-.77-.02-.7-3.05.16-3.38Z"/>
      <path class="st2" d="M43.02,56.56c0,.21.01.42-.02.62-.02.12-.12.54-.27.57l-.39-1.03c.07-.25.5-.07.69-.16Z"/>
    </g>
    <g>
      <path d="M88.75,76.81c.07.06.09.23.2.25.15.03.46-.22.62,0,.13.23-.06.48.02.7.06.18.45.5.61.74,1.7,2.61,2.1,4.98,1.2,8.02-.07.23-.78,2.03-.84,2.12s-.26.07-.36.17c-1.86,1.98-2.75,2.86-5.66,2.99-4.7.21-8.15-2.96-8.19-7.67-.02-2.62.57-5.06,2.27-7.1,2.51-3.02,7.33-2.57,10.15-.22ZM82.61,91.08c0-2.07.07-4.15.22-6.21.18-2.5.62-5.03.71-7.53.02-.42.06-1.28,0-1.65-.02-.12-.04-.21-.17-.25l-.66.1.31.51-.41-.1c.19.96.15,1.86.14,2.81-.02,1.84.01,3.7-.27,5.55-.32,2.07-1.06,3.93-1.72,5.9l.05.15,1.81.72ZM86.7,76.18l-2.55-.64c-.12.13-.17,3.09-.21,3.55-.22,2.81-.63,5.63-.76,8.44-.04.77-.15,2.17-.02,2.86.04.19.16.71.33.77l2.51-.19.69-14.8ZM81.88,75.96c-.56-.25-2.28.68-2.36,1.18-.06.37.21,1.08.21,1.53.04,2.26-.07,5.39-.55,7.59-.12.56-.71,1.96-.66,2.39.04.4,1.18,1.15,1.56,1.39,0-.43.34-.58.51-.92,1.4-2.77,1.73-7.8,1.6-10.86-.04-.84.02-1.49-.32-2.3ZM87.52,90.33c.1-.12.13-.28.13-.43-.7-3.68-.43-7.78.56-11.38.07-.25.34-.69.35-.89,0-.25-.79-.78-1.06-.86-.19,0-.44,3.54-.46,3.86-.17,2.27-.34,4.62-.42,6.89-.03,1.03.03,2.06,0,3.09.02.18.8-.17.9-.29ZM78.08,88.1c.61-1.97.97-3.97,1.14-6.03-.29-1.55.23-3.14-.21-4.68-1.85,2.12-2.25,4.83-2.06,7.57.08,1.11.42,2.28,1.14,3.14ZM89.19,78.11l-.21.06c-.46,1.17-.79,2.54-.92,3.8-.18,1.69-.38,4.2-.19,5.85.07.64.25,1.29.4,1.92.18.05.21-.07.31-.15.28-.22,1.14-1.16,1.19-1.49-.51-2.53-.21-5.13.86-7.47l-1.44-2.52ZM90.33,87.27c.27-.22.39-.77.48-1.11.4-1.47.67-3.21.08-4.65-.79,1.81-.93,3.83-.56,5.76Z"/>
      <path class="st0" d="M86.7,76.18l-.69,14.8-2.51.19c-.18-.06-.3-.59-.33-.77-.13-.69-.02-2.1.02-2.86.14-2.81.55-5.63.76-8.44.04-.46.09-3.42.21-3.55l2.55.64Z"/>
      <path class="st4" d="M81.88,75.96c.34.81.28,1.46.32,2.3.14,3.06-.19,8.09-1.6,10.86-.17.35-.51.5-.51.92-.38-.24-1.52-.99-1.56-1.39-.05-.43.54-1.84.66-2.39.47-2.2.59-5.33.55-7.59,0-.46-.27-1.16-.21-1.53.08-.5,1.8-1.43,2.36-1.18Z"/>
      <path class="st3" d="M89.19,78.11l1.44,2.52c-1.07,2.34-1.37,4.94-.86,7.47-.05.32-.91,1.27-1.19,1.49-.1.08-.13.2-.31.15-.15-.63-.33-1.27-.4-1.92-.19-1.65.02-4.16.19-5.85.13-1.25.46-2.63.92-3.8l.21-.06Z"/>
      <path class="st2" d="M78.08,88.1c-.71-.85-1.06-2.03-1.14-3.14-.19-2.74.21-5.45,2.06-7.57.45,1.54-.07,3.13.21,4.68-.16,2.05-.53,4.06-1.14,6.03Z"/>
      <path class="st2" d="M82.61,91.08l-1.81-.72-.05-.15c.66-1.97,1.4-3.83,1.72-5.9.28-1.84.25-3.7.27-5.55.01-.96.05-1.86-.14-2.81l.41.1-.31-.51.66-.1c.13.04.15.13.17.25.07.37.02,1.23,0,1.65-.09,2.5-.54,5.03-.71,7.53-.15,2.06-.21,4.14-.22,6.21Z"/>
      <path class="st2" d="M87.52,90.33c-.09.11-.87.47-.9.29.03-1.03-.04-2.06,0-3.09.08-2.27.25-4.62.42-6.89.02-.32.27-3.86.46-3.86.27.08,1.06.61,1.06.86,0,.19-.28.64-.35.89-.99,3.61-1.26,7.71-.56,11.38,0,.15-.03.31-.13.43Z"/>
      <path class="st2" d="M90.33,87.27c-.36-1.93-.22-3.96.56-5.76.59,1.45.32,3.18-.08,4.65-.09.34-.21.89-.48,1.11Z"/>
    </g>
    <g>
      <path d="M15.81,33.96c.22.18.97.67,1.07.83.08.12.08.2.05.33l-1.11,1.66c.06.41-.38.62-.67.91-.14.14-.25.44-.45.45l-2.18-1.2c-.22-.26.31-.81-.27-1.05-.21-.08-.64.39-.91.3l-2.14-1.23c-.26-.21.2-.81.36-1.06.45-.66.95-1.33,1.39-2.02.08-.12.04-.24.18-.38.4-.4.44.08.61.27.25.29,1.38.82,1.76.93.28.08.42.06.58-.18.4-.58.68-1.44,1.08-2.03.46-.69.5-.62,1-.1.13.14.3.1.32.38.02.32-.21.34-.34.56-.36.6-.58,1.29-.97,1.87-.04.27.46.58.65.74ZM15.86,34.59c-.05-.04-.07-.14-.13-.18-.17-.14-1.19-.85-1.2-.94l1.41-2.65-.28-.28c-.11,0-.33.34-.39.44-.21.33-1.09,2.29-1.23,2.37-.07.05-.13.02-.21,0-.23-.06-.86-.41-1.13-.54-.21-.1-.49-.14-.66-.24-.16-.08-.68-.64-.77-.58l-1.17,1.83c.81.41,1.69.69,2.51,1.08.49.23,1.28.6,1.72.89.24.16.96.97,1.26.69.12-.36.81-1.05.85-1.36s-.44-.4-.59-.52ZM12.17,35.17c-.78-.2-1.57-.59-2.25-1.04-.33.46-.31.52.12.84.18.13,1.15.64,1.33.67.32.06.72-.17.79-.48ZM12.45,35.38c0,.27.47.31.54.53.08.26-.17.53.01.75l1.57.92c.11.02.6-.5.54-.61-.78-.7-1.72-1.16-2.66-1.59Z"/>
      <path d="M18.03,39.29s.02-.11.06-.12c.64-.09.36,1.16.37,1.49,0,.39.19.83.15,1.23-.34.27-.36-.08-.52-.1-1.94-.02-3.87-.04-5.81-.06-1.77-.02-3.57-.02-5.32-.07-.41-.01-.82,0-1.23,0l-.05-.05c0-.68-.1-1.38-.07-2.06,0-.19.03-.75.25-.79.03,0,.4.2.57.24,1.41.31,3.97.1,5.49.1.81,0,5.83.35,6.1.19ZM6.03,39.39c-.13.11-.09,1.51,0,1.74.05.13.37.16.51.18,1.64.18,3.75-.02,5.45,0,1.48.02,2.99.11,4.48.14.41,0,1.23.06,1.59,0,.08-.01.14-.03.17-.11-.18-.41.1-1.28-.2-1.59-.2-.2-.31-.03-.51-.04-2.87-.17-5.77-.35-8.64-.21l-2.86-.12Z"/>
      <path d="M8.01,34.15c.07.08.36,1.39.33,1.5-.03.1-.14.2-.21.27-.32-.23-.16-.51-.24-.86-.02-.1.06-.2-.1-.17-.94.75-1.39,2-1.14,3.18.1.1.33-.37.41-.45.22-.22.5-.41.49.06l-.9,1.12c-.23.14-.49-.26-.62-.42-.14-.17-.86-1.11-.69-1.28.1.01.26-.03.33.01.05.03.35.78.56.82-.04-1.06.21-2.11.9-2.94-.39-.06-.58.72-.89.27-.11-.36.95-.79,1.21-.92.17-.09.38-.41.57-.19Z"/>
      <path d="M4.91,35.11c.16.22-.48.64-.41.98.03.13.72.24.56.6-.3.06-.42-.27-.72-.26-.39.62-1.02.81-1.08-.12-.05-.77.32-.55.86-.38l.49-.83h.31ZM3.61,36.55c.2.04.29-.12.41-.24l-.41-.17v.41Z"/>
      <path class="st2" d="M15.86,34.59c.15.12.63.2.59.52s-.74,1-.85,1.36c-.3.28-1.02-.53-1.26-.69-.44-.29-1.22-.66-1.72-.89-.82-.39-1.7-.66-2.51-1.08l1.17-1.83c.09-.06.61.5.77.58.18.09.46.14.66.24.27.13.89.48,1.13.54.07.02.13.05.21,0,.14-.07,1.02-2.03,1.23-2.37.06-.1.28-.44.39-.44l.28.28-1.41,2.65c.02.1,1.03.81,1.2.94.06.05.07.14.13.18Z"/>
      <path class="st2" d="M12.45,35.38c.95.42,1.89.89,2.66,1.59.06.12-.44.63-.54.61l-1.57-.92c-.18-.22.07-.48-.01-.75-.07-.22-.54-.26-.54-.53Z"/>
      <path class="st2" d="M12.17,35.17c-.07.31-.47.54-.79.48-.18-.03-1.15-.54-1.33-.67-.44-.32-.45-.39-.12-.84.68.45,1.46.83,2.25,1.04Z"/>
      <path class="st2" d="M6.03,39.39l2.86.12c2.87-.14,5.77.04,8.64.21.2.01.32-.16.51.04.3.3.02,1.18.2,1.59-.03.08-.09.1-.17.11-.37.06-1.18.01-1.59,0-1.49-.04-3-.12-4.48-.14-1.7-.03-3.81.17-5.45,0-.14-.02-.46-.05-.51-.18-.09-.23-.14-1.63,0-1.74Z"/>
      <path class="st2" d="M3.61,36.55v-.41s.41.17.41.17c-.12.12-.21.28-.41.24Z"/>
    </g>
    <g>
      <path d="M83.64,10.8c-.01-.12-.12-.35-.12-.51-1.38-.96-2.89-3.53-1.08-4.81.79-.55,1.5-.74,2.44-.52,2.91.67,2.08,4.55-.13,5.48l-.07.08c-.02.06.04.1.04.12v1.83c1.19.13,2.42.08,3.62.08,1.62,0,3.47.1,5.06,0,.42-.03.64-.42.77.34l-.37,2.82-.18.07c-.29-.36-.36-.09-.7-.05-.49.05-.96-.08-1.44-.08.06.39-.07.76-.08,1.12-.02.58.08,1.22.07,1.78,0,.65-.41.28-.65.28-1.75-.03-3.63.26-5.44.23-2.31-.03-5.01.22-7.21-.18-.31-.06-1.25-.15-1.28-.49l.05-1.74c-.22.22-1.68-.13-1.76-.23s0-.46.1-.48l1.66.24v-.93c-.59.02-1.29.03-1.75-.39-.03-.84,0-1.73-.27-2.52.08-.3,1.47.02,1.75.04l6.96.07c-.04-.54.06-1.15,0-1.67ZM81.93,7.03c.07.96,1.16,2.79,2.17,2.92.1.01.16-.1.27-.11.1,0,.19.07.35.04.65-.15,1.43-1.35,1.54-1.97.08-.5.02-1.43-.29-1.85-.43-.58-2.07-.94-2.72-.58l.15.31c-.74-.35-1.34.58-1.09,1.24h-.39ZM75.4,12.78l.17,1.66c.04.12.19.15.29.17,1.17.29,2.72.18,3.93.19s2.48.03,3.7-.03l.06-.09c.03-.38,0-.77.01-1.15,0-.18.21-.58-.05-.66l-8.11-.08ZM93.67,13.01l-8.89-.08c-.19.05.06,1.49-.13,1.79.69.02,1.38-.03,2.06,0,2.05.07,4.1.37,6.14.47.17,0,.3-.02.46-.09l.12.16.23-2.25ZM83.56,15.27l-2.53-.06c-.72.15-1.62.02-2.33.14-.09.02-.18.05-.2.15.35.12.69.28,1.05.39.94.26,1.53.3,2.47.34.51.02,1.03.04,1.53.13v-1.09ZM89.86,15.35l-5.16-.16-.21,1.09c.25-.12.43-.06.65-.09,1.51-.17,3.02-.35,4.5-.71.08-.02.23-.02.22-.13ZM79.28,16.28c-.64-.18-1.29-.4-1.86-.75-.23-.05-.16.45-.16.59.59.02,1.17.17,1.76.23.09,0,.28.07.26-.07ZM77.34,16.75v1.21c0,.2.2.34.37.41,1.18.43,3.37.27,4.64.25,2.18-.03,4.25-.02,6.45-.15.73-.04,1.48,0,2.22-.08-.18-.9.17-1.81.04-2.72-.28.32-.59.18-.92.24-3.16.55-5.89.99-9.11,1-1.24,0-2.45-.13-3.69-.15Z"/>
      <path d="M74.57,14.07c.25.21.6.28.52.68-.02.09-.23.12-.32.1-.24-.07-.16-.33-.39-.28-.1.66-.1,1.28,0,1.94.17-.06.32-.85.58-.47.21.3-.57,1.37-.86,1.38-.25,0-.96-1.07-.97-1.33,0-.2.2-.15.31-.08.12.07.52.81.66.81l.19-.19c-.15-.07-.4-.03-.45-.25l.07-1.89c-.31.21-.24.78-.77.61-.24-.41.11-.54.29-.82.14-.22.13-.51.48-.62.29-.09.47.25.65.41Z"/>
      <path class="st2" d="M77.34,16.75c1.24.02,2.45.16,3.69.15,3.21-.01,5.94-.45,9.11-1,.33-.06.64.08.92-.24.13.91-.22,1.82-.04,2.72-.73.09-1.48.03-2.22.08-2.2.13-4.27.13-6.45.15-1.27.02-3.47.18-4.64-.25-.17-.06-.37-.21-.37-.41v-1.21Z"/>
      <path class="st2" d="M93.67,13.01l-.23,2.25-.12-.16c-.15.06-.29.09-.46.09-2.04-.1-4.09-.4-6.14-.47-.69-.02-1.38.02-2.06,0,.19-.3-.06-1.74.13-1.79l8.89.08Z"/>
      <path class="st2" d="M75.4,12.78l8.11.08c.26.08.06.48.05.66-.01.38.02.77-.01,1.15l-.06.09c-1.23.06-2.47.03-3.7.03s-2.76.11-3.93-.19c-.11-.03-.25-.05-.29-.17l-.17-1.66Z"/>
      <path class="st2" d="M81.93,7.03h.39c-.26-.66.35-1.59,1.09-1.24l-.15-.31c.66-.36,2.29,0,2.72.58.31.42.37,1.35.29,1.85-.11.62-.88,1.82-1.54,1.97-.17.04-.26-.05-.35-.04-.11.01-.17.12-.27.11-1.02-.13-2.1-1.96-2.17-2.92ZM84.52,7.6c.26-.22.47-.45.71-.65.1-.09.35-.16.39-.23.05-.09,0-.63-.36-.52-.28.09-.51.53-.73.75-.24.23-.94.56-.81.96.14.44.67-.2.8-.31Z"/>
      <path class="st2" d="M83.56,15.27v1.09c-.5-.08-1.02-.1-1.53-.13-.94-.05-1.53-.08-2.47-.34-.36-.1-.7-.27-1.05-.39.01-.1.11-.14.2-.15.71-.12,1.61,0,2.33-.14l2.53.06Z"/>
      <path class="st2" d="M89.86,15.35c.02.11-.14.11-.22.13-1.48.36-2.99.54-4.5.71-.22.02-.4-.03-.65.09l.21-1.09,5.16.16Z"/>
      <path class="st2" d="M79.28,16.28c.02.14-.17.08-.26.07-.59-.05-1.17-.2-1.76-.23,0-.13-.07-.64.16-.59.57.35,1.22.57,1.86.75Z"/>
      <path d="M84.52,7.6c-.13.11-.66.75-.8.31-.12-.39.57-.73.81-.96.22-.21.46-.66.73-.75.35-.12.41.43.36.52-.04.07-.29.14-.39.23-.24.21-.45.44-.71.65Z"/>
    </g>
    <g>
      <path d="M40.55,15.29c-.05.17-.32.11-.43.04.08.12,0,.63.18.57.95-.49,2-.97,2.81-1.67.12-.11.32-.59.56-.33.07.07.11.23.11.32.02.48-.14,1.21-.15,1.72-.02.59.09,1.36.07,1.87,0,.13-.27.39-.24.61-.1.14-.78,0-1,0-3.18-.03-6.4.12-9.6.07-1.44-.02-3.38.27-4.65-.51-.48-.29-.2-.79-.19-1.24,0-.37-.14-2.52,0-2.61.43-.12.47.18.67.35,1.03.84,2.17,1.35,3.48,1.58l.14-.79c-.29-.09-.66.08-.84-.26l-.06-3.18,3.63-.07-.08-.92c-.86-.21-1.72-1.39-1.89-2.23-.06-.32.03-.6-.16-.89.23-.52.46-.95.88-1.34,1-.94,2.83-1.57,4.16-1.08,1.06.39,1.11,2.42.82,3.33s-1.01,1.75-1.89,2.19l-.03,1.03.17.12,3.28.3c.15.02.27.42.27.52v2.51ZM34.24,6.65c-1.82.9-.47,3.71,1.25,3.87,2.23.21,3.55-2.16,2.9-4.12-.18-.54-.21-.71-.79-.86-1.2-.3-2.52.23-3.51.9l.14.21ZM36.39,11.82c-.06-.23.2-.76,0-.9l-1.01.04.09.77.92.09ZM40.19,14.79v-1.86c0-.05-.09-.17-.16-.2-.21-.09-1.1-.22-1.39-.25-1.55-.2-3.1-.31-4.65-.29-.46,0-1.65-.09-2,.01-.23.07-.26.72-.27.95-.01.5.09,1,.16,1.5l.06.09c.4.18.85.05,1.26.05,1.78-.01,3.59.11,5.37.13.41,0,.99.05,1.37,0,.1-.01.18,0,.25-.11ZM43.35,14.68l-3.3,1.82c-2.29.7-4.7.51-7.06.18-1.72-.24-3.42-.87-4.69-2.08-.06.64.04,1.27.07,1.9,0,.12-.08.26-.07.42,0,.11.1.61.16.67.13.13,1.22.42,1.45.45,2.22.22,5.12.05,7.38,0,1.32-.03,2.63-.11,3.94-.14.43-.01,1.7.16,1.94-.06.06-.05.1-.1.1-.19l.07-2.97ZM35.75,15.33c-.79.02-1.58-.26-2.37-.07.15.37.21.64,0,1l2.51.22c-.31-.33-.46-.77-.14-1.15ZM39.04,15.33c-.76-.18-1.53-.01-2.29,0,.25.24.28.85.04,1.08-.1.09-.26.01-.25.14.8.02,1.61-.04,2.37-.29-.07-.23-.36-.6-.11-.79.09-.07.27-.01.26-.14ZM33.09,15.48c-.84-.23-.56.95-.1.64.26-.17.16-.39.1-.64ZM39.05,15.62c.12.5.53.72.78.16-.11-.64-.47-.05-.78-.16ZM36.05,16.1c.33.28.79-.14.45-.49h-.54c0,.13,0,.41.09.49Z"/>
      <path d="M42.66,7.8c.08.02.13.16.11.25-.04.07-.1.09-.18.11-.39.07-2.28-.17-2.4-.07-.03.3.53.3.61.43.07.11.07.46-.08.5-.26.08-1.12-.87-1.52-.8-.25-.47.4-.75.7-1.02.24-.22.56-.71.89-.69.11,0,.13.03.14.14.03.24-.73.66-.95.84-.05.04-.14,0-.09.16.08,0,.14-.04.22-.03.31.04.83.17,1.1.17h1.43Z"/>
      <path class="st2" d="M43.35,14.68l-.07,2.97c0,.08-.04.13-.1.19-.25.22-1.52.05-1.94.06-1.31.03-2.62.11-3.94.14-2.26.05-5.16.22-7.38,0-.23-.02-1.33-.31-1.45-.45-.06-.06-.15-.56-.16-.67,0-.17.08-.3.07-.42-.03-.63-.13-1.26-.07-1.9,1.27,1.2,2.98,1.83,4.69,2.08,2.35.33,4.76.52,7.06-.18l3.3-1.82Z"/>
      <path class="st2" d="M40.19,14.79c-.06.1-.14.1-.25.11-.38.04-.96,0-1.37,0-1.78-.02-3.59-.15-5.37-.13-.4,0-.85.13-1.26-.05l-.06-.09c-.07-.5-.17-.99-.16-1.5,0-.23.04-.88.27-.95.35-.1,1.54,0,2-.01,1.54-.01,3.1.09,4.65.29.29.04,1.17.16,1.39.25.07.03.16.15.16.2v1.86Z"/>
      <path class="st2" d="M34.24,6.65l-.14-.21c.99-.67,2.31-1.2,3.51-.9.57.15.61.32.79.86.65,1.96-.68,4.33-2.9,4.12-1.72-.16-3.08-2.97-1.25-3.87ZM37.97,6.37c-.14-.03-.26.01-.38.08-.42.23-1,.93-1.48,1.24-.14.09-.47.17-.49.19-.08.1,0,.49.18.56.2.07.16-.1.28-.19.46-.35.89-.74,1.35-1.09.33-.25.74-.21.53-.79Z"/>
      <path class="st2" d="M35.75,15.33c-.32.37-.16.82.14,1.15l-2.51-.22c.21-.37.15-.64,0-1,.79-.18,1.57.1,2.37.07Z"/>
      <path class="st2" d="M39.04,15.33c0,.12-.16.06-.26.14-.25.2.05.56.11.79-.76.24-1.56.3-2.37.29,0-.13.16-.05.25-.14.25-.23.21-.84-.04-1.08.76-.01,1.54-.18,2.29,0Z"/>
      <path class="st2" d="M36.39,11.82l-.92-.09-.09-.77,1.01-.04c.19.14-.06.68,0,.9Z"/>
      <path class="st2" d="M33.09,15.48c.06.25.16.47-.1.64-.47.31-.75-.87.1-.64Z"/>
      <path class="st2" d="M39.05,15.62c.31.11.66-.48.78.16-.25.56-.65.34-.78-.16Z"/>
      <path class="st2" d="M36.05,16.1c-.09-.08-.1-.36-.09-.48h.54c.33.35-.13.76-.45.48Z"/>
      <path d="M37.97,6.37c.2.58-.21.54-.53.79-.46.35-.89.74-1.35,1.09-.12.09-.08.26-.28.19-.19-.06-.27-.46-.18-.56.02-.02.34-.1.49-.19.48-.31,1.06-1.01,1.48-1.24.12-.07.24-.1.38-.08Z"/>
    </g>
    <g>
      <path d="M43.69,32.22v.18c-.22.19-.52.04-.78.06.16.24.32.47.44.74.22.48.49,1.08.35,1.59.46-.31,2.32.33,2.59.14.16-.11-.03-.4-.05-.52-.02-.18.08-.35.24-.18.12.12,0,.38.2.34.03-.19.05-1.11.2-1.18.14-.06.18.07.18.18,0,.16-.12,1.18-.16,1.3-.02.05-.27.15-.16.26.1.11.59-.63.7-.67.08.07.15.13.14.25,0,.04-.45.62-.51.68-.27.27-.44.29-.59-.08l-.1.11c-.17-.04-.35-.09-.52-.11-.59-.07-1.36-.1-1.92-.21-.12-.03-.19-.06-.29-.13l-.12,1.26c.14.6.03,1.2,0,1.8,0,.2.15.51-.09.58-.16.05-.63-.05-.83-.05-4.36,0-8.74,0-13.1-.28-.41-.03-.82.03-1.23,0-.15-.01-.8-.12-.9-.17-.34-.19-.1-.93-.09-1.25.03-.85-.12-1.73,0-2.58,0-.07.03-.16.06-.22.03-.05.6-.58.69-.66.8-.67,1.67-1.23,2.65-1.39.68-.11,1.78.5,2.32.92.93.72,1.35,1.81,2.79,1.71.56-.04.99-.7,1.38-1.04.95-.84,2.26-1.89,3.58-1.99.95-.07,1.99.48,2.94.62ZM43.25,38.23c-.03-.26,0-.51,0-.76,0-.65-.1-1.4-.06-2.03.02-.3.23-1.14.21-1.32-.02-.11-.11-.3-.15-.41-1.12-2.76-3.63-1.75-5.36-.26-.56.48-1.21,1.48-1.98,1.57-.35.04-1.3-.11-1.61-.28-.15-.08-.67-.76-.84-.92-.45-.43-1.31-1.06-1.86-1.29-1-.42-2.34.34-3.11.97-.33.27-.61.61-.93.88.06.25-.09.5-.1.72,0,.08.05.18.05.28-.01.57-.08,1.61.01,2.13.06.32.37.37.66.41.5.07,1,0,1.49.02,2.3.15,4.6.25,6.91.29,1.2.02,2.4-.01,3.6.05l3.06-.06Z"/>
      <path d="M47.25,33.72c.02-.15-.05-.67-.21-.72-.26-.08-.56.91-.86.52l.02-.19c.19-.09.59-.74.7-.77.45-.11.71.76.59,1.1l-.11.1-.14-.05Z"/>
      <path d="M46.12,32.33v.3s-.08.08-.08.08c-.28,0-.56-.08-.84-.1-.25-.02-.85.14-.88-.2l.06-.17c.06-.08.6-.05.74-.05.32.02.68.11,1,.14Z"/>
      <path class="st2" d="M43.25,38.23l-3.06.06c-1.2-.07-2.4-.04-3.6-.05-2.31-.03-4.61-.14-6.91-.29-.5-.03-1,.05-1.49-.02-.29-.04-.6-.09-.66-.41-.09-.51-.02-1.56-.01-2.13,0-.1-.05-.2-.05-.28,0-.22.17-.47.1-.72.32-.27.6-.61.93-.88.77-.63,2.1-1.39,3.11-.97.56.23,1.41.86,1.86,1.29.17.16.69.84.84.92.31.16,1.26.32,1.61.28.76-.09,1.41-1.08,1.98-1.57,1.74-1.49,4.24-2.5,5.36.26.05.11.14.31.15.41.03.18-.19,1.02-.21,1.32-.03.63.07,1.38.06,2.03,0,.25-.03.5,0,.76ZM39.37,35.08v-.19c-.06-.15-.38-.07-.53-.1-.32-.05-.79-.2-1.08-.22-.09,0-.15,0-.18.09-.04.21.05.23.22.28.48.14,1.08.14,1.58.14ZM42.18,34.91l-1.71-.21c-.26.19-.24.32.07.4.17.05.98.15,1.15.13.21-.01.52-.04.48-.32Z"/>
      <path d="M42.18,34.91c.04.28-.27.31-.48.32-.17.01-.99-.09-1.15-.13-.31-.09-.34-.21-.07-.4l1.71.21Z"/>
      <path d="M39.37,35.08c-.5,0-1.1,0-1.58-.14-.17-.05-.26-.06-.22-.28.04-.09.1-.09.18-.09.29.01.76.16,1.08.22.15.02.47-.05.52.1v.19Z"/>
    </g>
    <g>
      <path d="M79.39,35.3c1.31-.02,2.44-.82,3.48-1.53,1.92-1.32,2.68-2.84,4.25-4.11.76-.61,1.1-.72,2.09-.66,2.03.12,3.61,1.69,4.34,3.51.88,2.2-.2,7.45-2.21,8.9-2.42,1.75-5.88,2.4-8.24.22-.24-.22-1.15-1.39-1.24-1.42-.28-.09-.76.4-1.07.54-1.63.76-5.17-.22-6.82-.91-.75-.31-1.42-.7-1.82-1.45-.05-1.14.32-2.17.88-3.15.72-1.27,1.89-2.46,3.49-2.13.83.17,2.5,1.37,2.87,2.18ZM80.7,37.35c-.06.06.76,1.36.87,1.52,2.41,3.51,5.14,4.75,9.08,2.27,2.39-1.5,3.39-7,1.91-9.29-1.35-2.09-3.67-3.23-5.65-1.18-1.21,1.25-1.76,2.17-3.27,3.26-1.08.78-2.51,1.82-3.87,1.79-.04.04.46.94.5.97.07.04.26-.06.41,0,1.02.34.87.37,2.04.31.12,0,.36-.1.41.11.11.52-2.14.65-2.44.25ZM79.26,35.93c-.97.21-.41-.54-.44-.62-.23-.53-1.88-1.52-2.48-1.6-1.58-.22-2.75,1.37-3.3,2.66-.38.89-.7,1.71.17,2.41.97.78,5.27,1.74,6.53,1.63.37-.03,1.78-.25,1.66-.74l-2.14-3.74Z"/>
      <path class="st2" d="M80.7,37.35c.3.4,2.55.26,2.44-.25-.04-.21-.29-.11-.41-.11-1.17.06-1.02.03-2.04-.31-.15-.05-.34.05-.41,0-.05-.03-.55-.93-.5-.97,1.35.03,2.79-1.02,3.87-1.79,1.51-1.08,2.06-2.01,3.27-3.26,1.98-2.05,4.3-.91,5.65,1.18,1.48,2.29.48,7.78-1.91,9.29-3.94,2.48-6.68,1.24-9.08-2.27-.11-.16-.93-1.46-.87-1.52ZM90.28,30.12c-.61-.24-.81,1.53-.71,1.63h.4s.31-1.63.31-1.63ZM89.21,32.56c-.1.02-1.1,1.53-1.13,1.62-.04.14-.02.28.11.31.41.1,1.39-1.36,1.26-1.77l-.24-.17ZM83.75,36.74c.2-.39-.06-.58-.37-.8-.27-.19-1.31-.76-1.52-.43-.28.44.64.63.81.73.35.18.66.51,1.08.5ZM87.01,35.42c-.13-.13-1.45.65-1.73.76-.24.1-.58,0-.7.32l.19.44c-.41.06-.34.26-.21.57.15.37,1.3.86,1.44,1.36.28.03.47-.3.39-.54-.06-.17-1.46-1.17-1.42-1.34.63-.24.98-.57,1.48-.97.23-.18.64-.15.56-.61ZM87.93,41.84s.33-.25.36-.31c.09-.19-1.04-2.14-1.23-2.14-.08.08-.21.16-.24.28-.1.36,1.03,1.66,1.11,2.17Z"/>
      <path class="st2" d="M79.26,35.93l2.14,3.74c.12.49-1.3.71-1.66.74-1.25.1-5.56-.86-6.53-1.63-.87-.7-.56-1.53-.17-2.41.56-1.29,1.73-2.88,3.3-2.66.6.08,2.25,1.08,2.48,1.6.03.08-.53.82.44.62Z"/>
      <path d="M87.01,35.42c.08.46-.33.43-.56.61-.5.4-.85.73-1.48.97-.04.17,1.36,1.17,1.42,1.34.08.24-.11.57-.39.54-.14-.5-1.29-.99-1.44-1.36-.13-.31-.2-.51.21-.57l-.19-.44c.12-.33.47-.23.7-.32.28-.11,1.6-.89,1.73-.76Z"/>
      <path d="M87.93,41.84c-.08-.51-1.21-1.81-1.11-2.17.03-.12.16-.19.24-.28.19,0,1.32,1.95,1.23,2.14-.03.06-.32.33-.36.31Z"/>
      <path d="M83.75,36.74c-.41.01-.73-.31-1.08-.5-.17-.09-1.09-.29-.81-.73.21-.33,1.25.24,1.52.43.31.22.57.4.37.8Z"/>
      <path d="M89.21,32.56l.24.17c.13.41-.85,1.87-1.26,1.77-.14-.03-.15-.18-.11-.31.03-.1,1.04-1.6,1.13-1.62Z"/>
      <path d="M90.28,30.12l-.31,1.62h-.4c-.1-.09.11-1.86.71-1.62Z"/>
    </g>
    <g>
      <path d="M39.7,75.16c-.5.49-.11,1.86.5,2.19.27.15,1.03.29,1.25.04.41-.45.84-2.69,1.2-2.87s.77.27,1.15.44c.76.33,1.21.1,1.36,1.15.18,1.3-.31,1.98-.63,3.08-.05.17.02.38-.03.53-.05.16-.26.11-.37.22-.18.19-.3.53-.46.72-1.15,1.34-2.77,1.79-4.36.89-.65,1.13-1.12,2.38-1.73,3.53-.7,1.32-2.06,3.33-3.31,4.13-.48.31-.72.27-1.24.04-.84-.37-1.32-1.04-1.17-1.98s1.19-2.35,1.69-3.24c.76-1.37,1.44-2.78,2.38-4.04.06-.25-.35-.97-.42-1.3-.43-1.9.15-4.77,2.18-5.49,1.33-.47,1.7-.04,2.75.56.44.25,1.17.28,1.17.94l-.36.4c-.49-.2-1.12-.35-1.56.07ZM39.52,77.52c-.48-.54-.75-1.98-.39-2.61.26-.45,1.44-.81.08-1.22-1.63-.5-2.76.81-3.14,2.26-.27,1.04-.26,3.04.67,3.74.37-.31.95-2.16,1.32-2.22.8.31,1.41.31,1.99,1.06.95,1.23-.3,1.22-.46,2.31.54.43,1.43.63,2.11.46.46-.11,2.3-1.41,1.96-1.88-.29-.05-.44-.26-.67-.4-.18-.11-1.15-.65-1.27-.69-.21-.06-.3.06-.41.06-.06,0-.04-.17-.12-.19-.22-.05-.49.04-.78-.04-.13-.04-.8-.53-.89-.64ZM44.13,78.94c.3-.78.83-2,.44-2.81-.17-.36-.38-.18-.62-.31s-.72-.57-.97-.5c-.34.1-.82,2.04-1.08,2.41l2.23,1.21ZM39.27,78.51c-.37-.33-1.02-.43-1.18.16l.43.09.04.47c.66-.26.71.08.79.65.42-.38.31-1.02-.07-1.37ZM38.74,79.88c-.09-.11-.56.51-.88.19-.41-.42.3-.85.1-1.3l-.87,1.35c.34.23,1.28.95,1.62.7.39-.29-.05-.55.04-.94ZM36.23,80.34c-.49.82-1.03,1.61-1.51,2.45-.63,1.12-1.65,2.9-2.1,4.04-.07.17-.19.47-.2.64-.06.66.79,1.23,1.44,1.15.57-.06,1.67-1.38,2.04-1.87,1.13-1.49,1.83-3.24,2.62-4.92l-.05-.14c-.69-.59-1.68-.64-2.23-1.35Z"/>
      <path class="st2" d="M39.52,77.52c.1.11.77.6.89.64.29.08.56-.01.78.04.07.02.06.18.12.19.11,0,.21-.12.41-.06.12.04,1.09.58,1.27.69.23.14.38.36.67.4.34.47-1.5,1.77-1.96,1.88-.68.17-1.57-.03-2.11-.46.16-1.09,1.4-1.08.46-2.31-.57-.75-1.18-.75-1.99-1.06-.37.06-.94,1.91-1.32,2.22-.93-.7-.94-2.69-.67-3.74.37-1.45,1.51-2.76,3.14-2.26,1.36.42.17.77-.08,1.22-.36.63-.08,2.07.39,2.61Z"/>
      <path class="st2" d="M36.23,80.34c.55.71,1.54.76,2.23,1.35l.05.14c-.8,1.68-1.5,3.43-2.62,4.92-.37.49-1.47,1.81-2.04,1.87-.65.07-1.5-.49-1.44-1.15.02-.17.14-.47.2-.64.45-1.14,1.47-2.92,2.1-4.04.47-.84,1.01-1.63,1.51-2.45ZM33.41,86.41c-.68.16-.89,1.74-.09,1.91,1.33.29,1.69-2.3.09-1.91Z"/>
      <path class="st2" d="M44.13,78.94l-2.23-1.21c.27-.37.75-2.31,1.08-2.41.25-.07.74.38.97.5s.45-.05.62.31c.39.81-.14,2.04-.44,2.81Z"/>
      <path class="st2" d="M38.74,79.88c-.09.38.35.65-.04.94-.34.25-1.28-.47-1.62-.7l.87-1.35c.2.45-.51.88-.1,1.3.32.33.79-.3.88-.19Z"/>
      <path class="st2" d="M39.27,78.51c.38.34.5.99.07,1.37-.08-.57-.13-.91-.79-.65l-.04-.47-.43-.09c.16-.59.82-.48,1.18-.16Z"/>
      <path d="M33.41,86.41c1.6-.38,1.23,2.21-.09,1.91-.8-.18-.59-1.75.09-1.91ZM34,86.95c-.43-.2-1.01.57-.56.8.48.05.63-.37.56-.8Z"/>
      <path class="st2" d="M34,86.95c.07.42-.08.84-.56.8-.46-.23.12-1,.56-.8Z"/>
    </g>
    <g>
      <path d="M15.67,2.76c.75.73.91,1.66.55,2.64-.24.65-1.19.85-1.81.68-.31-.09-.33-.48-.58-.59s-.52,0-.77-.17c-.42-.29-.2-.99-1.22-.71.26,1.51-.04,3.07.35,4.58.05.05,1.01-.59,1.11-.7.34-.37.31-1.04.94-.47.59.53,1.03,1.48,1.53,2.11,1.26,1.57,2.55,3.19,3.87,4.71.17.2.72.57.74.61.11.18.02,1.01-.03,1.27-.08.11-1.19.13-1.42.12-.7-.03-1.68-.56-1.91.31-.31,1.15-.29,2.7-.57,3.89-.06.28-.36,1.22-.59,1.29-.27.11-.56-.09-.8-.08-1.64.06-3.56.26-5.17.22-.45-.01-2.04-.16-2.37-.33-.13-.07-.17-.11-.24-.23-.42-.69-.39-2.92-.51-3.84-.11-.86-.29-1.72-.45-2.58-.61-.32-1.24-.08-1.85-.53-1.29-.95.86-1.64,1.49-2.09.49-.35,1.77-1.35,2.11-1.76.63-.76,1.02-4.4,1.08-5.51.02-.42-.34-.92.23-1.17.28-.12.68-.01.94-.24-.48-.49-.93.22-1.45-.07-1.2-.66-.15-2.54.92-2.58,1.33-.05,2.19,1.39,3.36,1.02.4-.13.57-.69,1.08-.63.26.03,1.25.64,1.46.84ZM14.67,5.52l.98-.21c.29-.93.26-1.55-.48-2.22-1.31-1.19-1.42.31-2.8.1-.65-.1-1.1-.78-1.62-.96-.9-.3-1.7-.03-1.73.97.61-.53.52-.06.73.09.08.05,1.72.7,1.82.71.36.05.72-.24,1.21-.03.27.11.44.62.59.7.39.22,1.15,0,1.31.86ZM11.83,10.59l-.46-.75c.13-1.1.18-2.42.11-3.54-.02-.26-.07-.94-.15-1.15-.17-.45-.99-.3-1.31-.09-.36.25-.66,4.42-.8,5.22-.06.33-.12,1.06-.32,1.29-.12.14-.4.12-.59.26-.35.27-.71.64-1.07.93-.66.51-1.48.88-1.87,1.66.46.39.89-.2,1.29.12.32.26.51,1.66.58,2.12.13.92.21,4.02.64,4.59.29.38,1.5.41,1.96.39-.1-1.11-.27-2.59.18-3.64.19-.46,1.52-1.69,1.99-1.65,1.5.14,1.56,3.34,1.72,4.4.04.27.27.45.11.77,1.22.03,1.79.14,2.06-1.17.22-1.07.24-2.28.42-3.34.29-1.79.36-1.23,1.69-1.13.24.02,1.51.1,1.58,0l-5.4-6.88c-.13-.09-.22-.05-.35,0-.32.14-1.89,1.66-2,1.59ZM13.12,21.52v-1.82c0-.29-.32-1.46-.45-1.78-.27-.67-.52-1.07-1.2-.57-.84.61-1.16,1.7-1.18,2.7,0,.61.32,1.07.13,1.59l2.7-.12Z"/>
      <path class="st2" d="M11.83,10.59c.1.07,1.68-1.44,2-1.59.13-.06.22-.1.35,0l5.4,6.88c-.07.09-1.35.02-1.58,0-1.33-.1-1.4-.66-1.69,1.13-.17,1.06-.2,2.27-.42,3.34-.27,1.3-.84,1.2-2.06,1.17.16-.32-.07-.5-.11-.77-.16-1.06-.22-4.26-1.72-4.4-.47-.04-1.79,1.19-1.99,1.65-.44,1.05-.28,2.53-.18,3.64-.46.02-1.67-.01-1.96-.39-.43-.56-.51-3.67-.64-4.59-.07-.47-.26-1.86-.58-2.12-.39-.32-.83.27-1.29-.12.39-.77,1.21-1.14,1.87-1.66.36-.28.72-.66,1.07-.93.19-.14.47-.12.59-.26.2-.23.27-.96.32-1.29.14-.79.44-4.97.8-5.22.31-.21,1.14-.36,1.31.09.08.2.13.88.15,1.15.07,1.12.02,2.43-.11,3.54l.46.75ZM12.63,11.68c-.41.09-.85.62-1.33.67-1.07,1.31.83,3.18,2.07,2.19,1.09-.86.81-3.21-.74-2.86Z"/>
      <path class="st2" d="M13.12,21.52l-2.7.12c.19-.52-.13-.98-.13-1.59.01-1.01.34-2.1,1.18-2.7.69-.5.93-.1,1.2.57.13.32.45,1.49.45,1.78v1.82Z"/>
      <path class="st2" d="M14.67,5.52c-.17-.87-.93-.64-1.31-.86-.15-.08-.32-.59-.59-.7-.48-.21-.84.08-1.21.03-.1-.01-1.73-.66-1.82-.71-.21-.14-.12-.61-.73-.09.03-1,.83-1.27,1.73-.97.53.17.98.86,1.62.96,1.38.22,1.49-1.29,2.8-.1.74.67.78,1.29.48,2.22l-.98.21Z"/>
      <path d="M12.63,11.68c1.55-.35,1.83,2,.74,2.86-1.25.99-3.14-.88-2.07-2.19.49-.05.93-.57,1.33-.67ZM13.21,13.85c.75-.75.01-2.23-.98-1.15l-.51-.23c-.59.99.68,2.18,1.49,1.38Z"/>
      <path class="st2" d="M13.21,13.85c-.81.81-2.08-.38-1.49-1.38l.51.23c.99-1.08,1.73.4.98,1.15Z"/>
    </g>
    <g>
      <path d="M63.44,56.14c.15-.07.22-.1.4-.06.44.11,1.43.75,1.93.98.38.17.66-.02.57.62-.03.21-.19.31-.16.56.09.6,1.31,3.8,1.66,4.32.13.19.75.42.3.92-.16.18-1.55.71-1.9.9-.59.3-3.27,1.85-3.66,1.84-.13,0-.4-.17-.69-.18-1.26-.06-3.08,0-4.28-.23-.56-.11-3.15-1.46-3.78-1.82-.14-.08-.92-.5-.95-.55-.08-.13-.07-.29-.03-.43.71-1.24,1.18-2.6,1.83-3.88.27-.54.8-1.64,1.2-2,.08-.08.26-.07.32-.13.08-.08.04-.33.23-.42.2-.1.5-.01.73-.07.66-.16,1.28-.54,1.97-.48.04-1.52,1.46-2.42,2.92-1.97,1.07.33,1.43.96,1.38,2.07ZM62.63,56.74c-.04-.36.31-.72.3-1.04-.03-.96-1.3-1.3-2.08-1.09-1.09.29-1.51,2.08-.67,1.94.13-.31.67-1.23,1-1.26.71-.06,1.29.77,1.15,1.45h.3ZM61.73,56.53l-.08-.45-.44-.15c-.38.22-.3.84-.41,1.01-.19.3-1.59.3-1.45-.3-.63.19-1.44.21-2.06.49-.12.05-.18-.05-.14.21.66.25,1.44,1.2,2.1,1.36.23.06.36-.04.46-.03s.09.21.28.29c.72.29,1.9.29,2.61.09.97-.28,1.87-.98,2.85-1.26,0-.17-.84-.66-1.03-.77-.39-.21-1.01-.19-.97-.68-.24.15-.23.6-.4.83-.4.54-1.27-.01-1.84-.01l-.05-.51.59-.11ZM54.17,63.4c.81.52,1.84,1.04,2.77,1.29.25-.12,1.57-3.08,1.74-3.55.13-.35.58-1.51.4-1.8-.06-.1-1.69-1.24-1.92-1.38s-.79-.52-1.03-.37c-1.07,1.67-1.9,3.47-2.59,5.33v.12c.3-.02.47.27.62.37ZM62.94,65.24c.18.19,3.94-1.87,4.39-2.17l-1.69-4.74c-.55.3-1.14.47-1.7.75-.49.24-.97.71-1.49.76l.5,5.4ZM57.54,64.94c.27.36,3.96.48,4.56.41.11-.01.22,0,.3-.1.2-.29-.13-1.64-.16-2.06-.04-.55,0-2.99-.34-3.26-.42-.07-1.85-.41-2.11-.19l-2.25,5.2Z"/>
      <path class="st2" d="M54.17,63.4c-.15-.1-.32-.38-.64-.37v-.12c.7-1.86,1.53-3.66,2.6-5.33.24-.15.81.24,1.03.37s1.86,1.28,1.92,1.38c.17.28-.27,1.45-.4,1.8-.18.47-1.5,3.44-1.74,3.55-.93-.25-1.96-.77-2.77-1.29Z"/>
      <path class="st2" d="M62.94,65.24l-.5-5.4c.53-.05,1.01-.51,1.49-.76.56-.28,1.15-.45,1.7-.75l1.69,4.74c-.45.3-4.21,2.35-4.39,2.17Z"/>
      <path class="st2" d="M57.54,64.94l2.25-5.2c.26-.22,1.69.12,2.11.19.33.27.3,2.71.34,3.26.03.42.35,1.77.16,2.06-.08.1-.19.09-.3.1-.59.07-4.29-.05-4.56-.41ZM60.71,63.11c.09-.07.48-.81.51-.94.15-.74-.6-1.1-1.23-1.13-.94-.05-.49.44-.44.85.06.5-.28,2.25-.09,2.54l.32.1.21-.18.05-1.1c.22,0,.48.02.67-.13Z"/>
      <path class="st2" d="M61.73,56.53l-.59.11.05.51c.57,0,1.44.55,1.84.01.17-.23.16-.67.4-.83-.04.49.58.47.97.68.19.1,1.03.6,1.03.77-.98.28-1.88.98-2.85,1.26-.71.2-1.89.2-2.61-.09-.19-.08-.19-.27-.28-.29s-.23.08-.46.03c-.66-.16-1.44-1.11-2.1-1.36-.04-.26.02-.15.14-.21.62-.28,1.43-.3,2.06-.49-.14.6,1.27.6,1.45.3.11-.17.04-.79.41-1.01l.44.15.08.45Z"/>
      <path class="st2" d="M62.63,56.74h-.3c.14-.68-.44-1.51-1.15-1.45-.34.03-.87.95-1,1.26-.84.15-.42-1.65.67-1.94.78-.2,2.05.14,2.08,1.09.01.32-.34.68-.3,1.04Z"/>
      <path d="M60.71,63.11c-.19.15-.45.12-.67.13l-.05,1.1-.21.18-.32-.1c-.18-.29.15-2.04.09-2.54-.05-.4-.5-.89.44-.85.64.03,1.38.39,1.23,1.13-.03.13-.42.88-.51.94ZM60.63,61.85c-.75-.5-.69.76-.44.79.3-.13.5-.46.44-.79Z"/>
      <path class="st2" d="M60.63,61.85c.06.33-.14.66-.44.79-.25-.02-.31-1.29.44-.79Z"/>
    </g>
    <g>
      <path d="M59.44,28.23c-.06.42.02.75.18,1.13l1.03.03c.19.67.12,1.25.19,1.93.45.1,1.89-.04,2.02.51.03.12-.08,1.03-.08,1.31.04,2.36.31,4.78.18,7.15-.04.75-.19,2.66-.4,3.31-.03.1-.32.61-.36.62-2.3-.14-4.65.15-6.97,0-.34-.02-1.15-.07-1.32-.36-.07-.12-.49-1.11-.52-1.23-.31-1.18-.04-4.44-.06-5.88-.01-1.04-.19-2.14-.19-3.18,0-.3.18-1.85.31-1.99l.1-.07c.3.12,1.72.03,1.85-.19.24-.59-.36-1.84.08-2.3.2-.21.9.11,1.19.09-.06-.32.08-.62.09-.92,0-.26-.17-1.34.13-1.36.6.24,1.59.3,2.21.08l.31.66c.47.26,2.08-.6,2.63-.82.7-.27,1.39-.56,2.08-.83s1.38-.49,2.05-.78c.1,0,.34.63.05.75-.08.03-.25-.05-.39-.04-1.26.18-3.13,1.04-4.41,1.52-.68.25-1.28.75-2,.87ZM58.77,27.52h-1.55l-.05,1.51c.58.2,1.15.31,1.77.26.18-.03.1-1.69-.17-1.77ZM55.9,29.64v1.68h4.51s-.08-1.36-.08-1.36l-.34-.12-4.09-.2ZM54.36,43.37c.27.24.3.27.7.31,1.68.17,4.4.11,6.09-.09.28-.03.63-.08.89-.17.23-.23.46-2.5.49-2.96.11-2.11-.09-4.28-.17-6.38-.02-.38.08-1.94-.18-2.11-1.83-.25-3.76-.41-5.61-.3-.27.01-.52.15-.8.18-.33.02-1.64-.09-1.77.09-.25.33-.11,4.25-.13,5-.03,1.69-.26,3.43,0,5.11.04.24.07.51.12.76.04.22.21.42.37.57Z"/>
      <path d="M61.79,30.27c.3-.08,4.2,2.66,4.85,2.9.19.16.17.79-.22.57-1.53-1.05-3.04-2.14-4.68-3.01-.21-.15-.2-.4.06-.47Z"/>
      <path d="M66.48,30.9c.12.12.17.4-.02.51-.41-.44-1.18-.44-1.67-.8-.31-.23-.12-.48.23-.41.08.01,1.4.66,1.46.71Z"/>
      <path d="M60.76,28.31h1.81l.13.22c-.08.38-1.46.18-1.8.21l-.14-.43Z"/>
      <path d="M66.15,27.96v.35c-.67-.12-1.4.3-2.12.18-.02-.63.66-.37,1.02-.4s.74-.05,1.1-.13Z"/>
      <path d="M67.58,32.44c-.6-.57,1.1-.52,1.04.06-.04.41-.9.07-1.04-.06Z"/>
      <path d="M68.53,28.31l-.04.27-.11.07c-1.61.2-1.12-.76.15-.34Z"/>
      <path class="st2" d="M54.36,43.37c-.16-.15-.33-.34-.37-.57-.04-.25-.08-.52-.12-.76-.26-1.69-.03-3.42,0-5.11.01-.75-.12-4.67.13-5,.13-.17,1.44-.06,1.77-.09.27-.02.53-.16.8-.18,1.86-.1,3.78.06,5.61.3.26.18.16,1.73.18,2.11.09,2.09.29,4.27.17,6.38-.02.46-.26,2.73-.49,2.96-.26.1-.61.14-.89.17-1.7.2-4.41.26-6.09.09-.4-.04-.43-.07-.7-.31ZM58.23,37.82c-.35-.76-.47-1.59-1.18-2.14l-.29.04c-.17.35-.4.69-.57,1.05-.29.62-.48,1.26-.68,1.88-.16.5-.34.99-.45,1.5.1.05.36.24.45.09.13-.33.29-1.58.57-1.73l1.73-.18c.33.05.5,1.53.88,1.73.62-.45-.05-1.04-.24-1.62-.1-.31-.06-.29-.21-.62ZM58.86,42.8c.22.07,1.25,0,1.59,0,.26,0,.62-.58.65-.85.12-.86.08-2.88.01-3.79-.06-.8-.1-1.47-1.02-.84-.28.19-.65.78-.66,1.11-.02.62.91,1.04,1.32.48-.03.09.09.19.09.22v2.47s-.16.47-.19.52c-.19.29-1.05.29-1.36.23-.2-.04-.17-.17-.21-.2-.41-.29-.46.57-.23.64Z"/>
      <polygon class="st2" points="55.9 29.64 59.99 29.84 60.32 29.96 60.4 31.31 55.9 31.31 55.9 29.64"/>
      <path class="st2" d="M58.77,27.52c.27.09.35,1.74.17,1.77-.62.04-1.19-.06-1.77-.26l.05-1.51h1.55Z"/>
      <path d="M58.23,37.82c.15.33.11.31.21.62.19.57.86,1.17.24,1.62-.38-.2-.55-1.68-.88-1.73l-1.73.18c-.29.14-.44,1.4-.57,1.73-.09.15-.35-.04-.45-.09.11-.51.29-1,.45-1.5.2-.62.39-1.26.68-1.88.17-.35.39-.7.57-1.05l.29-.04c.71.55.83,1.38,1.18,2.14ZM57.75,37.94c.07-.07-.51-1.55-.74-1.5-.27.06-.87,1.47-.76,1.59l1.5-.09Z"/>
      <path d="M58.86,42.8c-.23-.07-.18-.94.23-.64.04.03,0,.17.21.2.31.06,1.18.06,1.36-.23.03-.05.19-.49.19-.52v-2.47s-.12-.13-.09-.22c-.41.56-1.34.14-1.32-.48.01-.34.38-.92.66-1.11.92-.64.96.03,1.02.84.06.91.11,2.93-.01,3.79-.04.27-.39.85-.65.85-.34,0-1.37.07-1.59,0ZM60.45,37.68c-.29.19-.68.41-.56.82.52.7,1.07-.34.56-.82Z"/>
      <path class="st2" d="M57.75,37.94l-1.5.09c-.12-.12.48-1.53.76-1.59.23-.05.81,1.42.74,1.5Z"/>
      <path class="st2" d="M60.45,37.68c.52.48-.04,1.52-.56.82-.12-.41.26-.63.56-.82Z"/>
    </g>
    <g>
      <path d="M92.02,53.66c-1.44.18-2.86.66-4.23,1.15-1.08.39-2.3.85-3.3,1.4-.3.17-2.09,1.27-2.19,1.43-.1.15.05.3.05.45-1.03-.24-.62,1.34-.29,1.87.87,1.41,4.98,2.16,6.56,2.48,1.68.33,3.44.68,5.17.79.18.01.34-.1.52-.09.23.2.08.49.06.73-1.53-.46-3.16-.38-4.72-.66-1.94-.34-5.5-1.11-7.14-2.08-.87-.51-1.48-1.82-1.34-2.83.05-.38.28-.41.43-.61.06-.08-.02-.23.08-.34.34-.38,3.09-1.78,3.71-2.06,1.4-.63,3.73-1.6,5.18-1.96.53-.13,1.51-.51,1.45.32Z"/>
      <path d="M77.01,64.42l1.4-.63c.14.1.18.23.13.39-.08.25-.52.12-.44.42.71-.02,1.42.02,2.13,0,.21,0,.41-.09.63-.1.91-.02,1.88.09,2.76-.04-.2-.25-1.37-.4-.91-.9.32-.35,1.15.49,1.45.68l.04-.73.41-.09c-.08.75,0,1.47,0,2.22,0,.32-.16.61,0,.98l-.46.15v-1.63c-.35-.12-1,.71-1.13.71-.2,0-.29-.5-.16-.67l-.13-.12h-4.82c-.06.35.68.55.72.68l-.09.57h-.39c-.22-.56-.84-.82-1.01-1.44-.22-.07-.15.64-.14.77.02.21.16.56.16.63-.03.27-.62.37-.67-.1.11-.71.07-1.44.07-2.16,0-.36-.22-.67.13-.94.56.05.2,1.22.31,1.35Z"/>
      <path d="M93.82,57.82l.09.62-.3.1c-.08-.08-.02-.17-.18-.19-.59-.08-1.38.07-2,.01-1.32-.2-2.69.27-4.02.36.01.13.41.16.51.17,1.83.19,3.25.72,4.99.99.23.04.41-.08.63-.02.44.12.7.6.15.76l-4.27-1.06-3.48-.41c-.37-.11-.18-.7-.15-.98.91.23,1.9.1,2.84-.01.4-.05.79-.21,1.19-.26,1.31-.15,2.7.15,4.02-.09Z"/>
      <path d="M75.82,57.02c.25-.04.39.07.6.07s.35-.1.63-.08c1.96.15,3.34,1.88,2.34,3.76-1.06,1.99-5.05,1.54-5.07-1.02,0-.81.58-2.57,1.51-2.73ZM75.93,57.91l-.18-.45c-.89.57-1.29,2.66-.51,3.4,1.16,1.1,3.71.66,4.01-1.12.17-.97-.23-1.45-1.04-1.9-.49-.28-1.12-.4-1.68-.27-.27.06-.34.33-.6.34Z"/>
      <path d="M91.37,56.09c-.82-.1-1.49.3-2.25.51-1.09.3-2.2.53-3.23,1.02l-.47-.22c-.03-.11,0-.18.08-.27.22-.27,3.14-.9,3.71-1.08.69-.21,1.36-.54,2.03-.76.18.06.26.63.13.8Z"/>
      <path d="M85.16,60.36s.29-.1.38-.08c1.64.65,3.39.9,5.1,1.32.17.04.37-.01.51.03.22.07.28.67.01.79-1.64-.83-3.55-.86-5.29-1.39-.22-.07-.99-.28-.71-.67Z"/>
      <path d="M83.41,58.02c1.12-.16,1.35,1.86.24,1.97s-1.34-1.81-.24-1.97ZM83.5,58.65c-.73.14-.11,1.16.35.62.26-.3.05-.7-.35-.62Z"/>
      <path class="st2" d="M75.93,57.91c.26,0,.34-.28.6-.34.56-.13,1.19,0,1.68.27.8.45,1.2.93,1.04,1.9-.31,1.78-2.85,2.22-4.01,1.12-.78-.74-.38-2.83.51-3.4l.18.45ZM76.62,58.29c-.29.07-.49.33-.58.59-.5,1.35,1.12,2.27,2.01,1.29s-.35-2.13-1.43-1.88Z"/>
      <path class="st2" d="M83.5,58.65c.4-.08.6.32.35.62-.45.53-1.07-.48-.35-.62Z"/>
      <path d="M76.62,58.29c1.08-.25,2.36.85,1.43,1.88s-2.51.06-2.01-1.29c.1-.26.29-.53.58-.59ZM76.49,59.19c.11.98.9,1.05,1.42.29-.21-.69-.95-.85-1.42-.29Z"/>
      <path class="st2" d="M76.49,59.19c.47-.56,1.2-.4,1.42.29-.51.76-1.31.69-1.42-.29Z"/>
    </g>
    <g>
      <path d="M12.32,49.86c3.14-.17,5.49,1.35,6.93,4.09,2.76,5.28,1.35,14.23-4.8,16.49-5.21,1.91-11.34-2.84-11.84-8.14-.38-4.08.31-6.89,3.3-9.69,2.09-1.96,3.52-2.59,6.41-2.75ZM17.43,52.35c-1.95-2.15-4.67-2.47-7.46-1.84-1.14.26-2.65,1.38-3.44,2.21l.45.11c-1.14.2-1.94,1.35-2.02,2.47-.58.15-.1-.38-.56-.34-2.59,4.65-1.23,11.77,3.76,14.21,5.6,2.74,10.61-.6,11.55-6.46.63-3.96.5-7.3-2.28-10.37Z"/>
      <path class="st2" d="M17.43,52.35c2.79,3.07,2.92,6.41,2.28,10.37-.94,5.86-5.95,9.2-11.55,6.46-5-2.45-6.35-9.56-3.76-14.21.45-.04-.02.48.56.34.08-1.11.88-2.27,2.02-2.47l-.45-.11c.8-.83,2.3-1.96,3.44-2.21,2.8-.63,5.51-.31,7.46,1.84ZM11.66,51.4c-.09-.06-.21-.01-.31-.03l-.33,1.97c-.69.27-2.39-.88-2.85-.73-.37.12-.18,1.21-.4,1.39l-2.19.5c-.05.53.29.96.51,1.4-.04.19-1.62.65-1.54,1.66.04.48.37.46.42.6.15.48-1.34,1.57-1.67,1.9-.06.3,1.14.93,1.45.94l-.74,1.57c.13.47,1.03.42,1.36.78.28.44-.98,1.58.61,1.46,0,.41-.06,1.05.22,1.38.21.24.78.13,1.05.19.06.01.65.69,1.08.45.02.51.08,1.11.51,1.45.83.67,1.11-.75,1.68-1.12.4.25,1.15,1.43,1.57,1.45.62.02.75-1.18,1.18-1.51.3-.15,1.21.62,1.72.3l.31-1.68c.53-.13,1.21.26,1.62-.12.46-.43.28-1.44.17-2,.38-.16,1.66-.89,1.67-1.3l-.56-.78c.46-1.03,1.52-1.99.13-2.82.11-.59.64-1.14.33-1.76l-1.02-.37c.27-2.03,1.01-3.11-1.79-2.39.1-.77-.02-1.95-1.06-1.79-.33.05-.63.5-.81.53-.58.11-1.69-.83-2.12-1.2-.09-.08-.14-.29-.18-.32Z"/>
      <path d="M11.66,51.4s.09.24.18.32c.43.37,1.55,1.31,2.12,1.2.18-.03.47-.48.81-.53,1.03-.16,1.16,1.02,1.06,1.79,2.79-.72,2.06.36,1.79,2.39l1.02.37c.31.63-.22,1.17-.33,1.76,1.39.83.33,1.8-.13,2.82l.56.78c-.01.41-1.29,1.14-1.67,1.3.11.57.29,1.58-.17,2-.41.37-1.09-.02-1.62.12l-.31,1.68c-.5.33-1.42-.44-1.72-.3-.42.33-.56,1.53-1.18,1.51-.41-.01-1.17-1.2-1.57-1.45-.57.36-.85,1.79-1.68,1.12-.42-.34-.49-.94-.51-1.45-.44.24-1.02-.44-1.08-.45-.27-.06-.84.05-1.05-.19-.28-.33-.22-.97-.22-1.38-1.59.13-.33-1.02-.61-1.46-.34-.36-1.23-.31-1.36-.78l.74-1.57c-.31,0-1.52-.64-1.45-.94.32-.34,1.82-1.42,1.67-1.9-.04-.14-.38-.12-.42-.6-.08-1,1.5-1.47,1.54-1.66-.22-.44-.56-.87-.51-1.4l2.19-.5c.22-.19.04-1.27.4-1.39.46-.15,2.16,1,2.85.73l.33-1.97c.1.01.22-.03.31.03ZM14.71,66.73v-1.57c.65-.38,1.19-.02,1.89-.13.43-.49-.23-1.25-.14-1.55.12-.42,1.09-.85,1.5-1.01.16-.22-.65-.53-.65-.73l1.19-2.04c0-.39-.58-.36-.77-.53-.4-.38.48-1.2.45-1.67-.09-.3-.96-.02-1.1-.71-.11-.55.51-1.77.42-2.09-.14-.5-1.36.02-1.63.04-1.08.09-.28-1.48-.68-1.8s-.63.34-.96.48c-.96.42-1.66-1.06-2.55-1.15-.22.57.24,1.68-.61,1.69-.52,0-2.18-1.12-2.53-.86-.29.21.02.79-.02,1-.1.58-1.85.66-2.33.63-.16.53.7.74.61,1.12-.2.83-1.8.88-1.6,1.6.07.24.53.41.5.64-.3.78-.95,1.31-1.64,1.74l.07.28,1.26.62c-.05.61-.51,1.03-.76,1.56.73.45,1.71.63,1.22,1.73,1.17-.06.25,1.35,1.06,1.68.9-.54.83.56,1.74.11.2.67,0,1.52.62,2.02.16,0,.72-1.27,1.25-1.32s1.03,1.23,1.55,1.41c.47-.14.6-1.31.8-1.44.56-.37,1.22.37,1.83.23Z"/>
      <path class="st2" d="M14.71,66.73c-.61.14-1.27-.6-1.83-.23-.2.13-.33,1.3-.8,1.44-.52-.17-1.01-1.46-1.55-1.41s-1.09,1.32-1.25,1.32c-.61-.5-.41-1.35-.62-2.02-.91.45-.85-.66-1.74-.11-.81-.33.12-1.74-1.06-1.68.49-1.11-.49-1.29-1.22-1.73.25-.53.71-.95.76-1.56l-1.26-.62-.07-.28c.69-.43,1.34-.95,1.64-1.74.04-.24-.43-.41-.5-.64-.2-.72,1.4-.77,1.6-1.6.09-.38-.77-.59-.61-1.12.48.03,2.22-.05,2.33-.63.04-.21-.27-.79.02-1,.35-.26,2.01.86,2.53.86.85,0,.39-1.12.61-1.69.89.09,1.59,1.56,2.55,1.15.33-.14.57-.79.96-.48s-.4,1.89.68,1.8c.27-.02,1.49-.54,1.63-.04.09.32-.53,1.54-.42,2.09.14.69,1,.41,1.1.71.03.47-.85,1.3-.45,1.67.19.18.77.14.77.53l-1.19,2.04c0,.2.82.5.65.73-.41.16-1.38.59-1.5,1.01-.09.3.57,1.07.14,1.55-.7.11-1.24-.25-1.89.13v1.57ZM8.02,63.66c.49.48,2.27,1.29,2.94,1.37,2,.23,4.7-1.77,5.28-3.66.99-3.25-.11-7-4.06-6.75-3.32.21-5.91,2.38-5.66,5.88.09,1.22.64,2.3,1.5,3.15Z"/>
      <path d="M8.02,63.66c-.86-.85-1.41-1.93-1.5-3.15-.25-3.51,2.34-5.67,5.66-5.88,3.94-.25,5.05,3.5,4.06,6.75-.58,1.89-3.28,3.89-5.28,3.66-.67-.08-2.45-.89-2.94-1.37ZM14.64,62.62c2.27-2.3,1.69-7.77-2.32-7.42-.61.05-2.08.49-2.64.72-3.08,1.27-3.44,5.95-.46,7.61,2.15,1.2,3.74.79,5.42-.91Z"/>
      <path class="st2" d="M14.64,62.62c-1.68,1.7-3.27,2.11-5.42.91-2.98-1.66-2.62-6.34.46-7.61.56-.23,2.03-.67,2.64-.72,4.02-.35,4.6,5.12,2.32,7.42ZM13,58.92c-.12-.12-1.17-.58-1.37-.6-1.16-.1-2.46,1.09-2.16,2.27.11.43,1.18,1.46,1.6,1.54.88.17,2.12-.8,2.27-1.65.05-.29-.14-1.37-.35-1.56Z"/>
      <path d="M13,58.92c.2.2.4,1.27.35,1.56-.16.85-1.39,1.82-2.27,1.65-.42-.08-1.49-1.1-1.6-1.54-.31-1.19,1-2.38,2.16-2.27.2.02,1.25.48,1.37.6ZM10.67,59.67c-.89-.31-.71.67-.34,1.18,1.43,1.93,3.82-1.26,1.46-1.91-.56-.15-1.22.13-1.12.73Z"/>
      <path class="st2" d="M10.67,59.67c-.1-.6.57-.88,1.12-.73,2.36.65-.03,3.83-1.46,1.91-.38-.5-.55-1.48.34-1.18Z"/>
    </g>
    <g>
      <path d="M63.76,15.92c-.05.17-.33.11-.44.04.08.12,0,.64.18.59.97-.51,2.06-1,2.89-1.72.13-.11.33-.61.58-.34.07.07.11.23.11.33.02.5-.14,1.25-.16,1.77-.02.61.1,1.4.07,1.93,0,.14-.28.4-.25.62-.11.14-.81,0-1.03,0-3.27-.03-6.59.12-9.89.07-1.48-.03-3.49.28-4.79-.52-.49-.3-.2-.82-.19-1.28,0-.38-.15-2.59,0-2.69.44-.12.49.19.69.36,1.06.87,2.23,1.4,3.58,1.62l.15-.81c-.3-.09-.68.09-.87-.27l-.06-3.28,3.73-.07-.09-.95c-.89-.22-1.78-1.43-1.95-2.3-.07-.33.03-.62-.17-.91.24-.54.47-.98.91-1.38,1.03-.96,2.91-1.62,4.29-1.11,1.09.4,1.14,2.49.84,3.43s-1.04,1.8-1.94,2.25l-.03,1.06.17.12,3.38.31c.15.02.27.43.27.54v2.58ZM57.27,7.02c-1.88.93-.48,3.82,1.29,3.99,2.29.21,3.66-2.22,2.99-4.25-.18-.56-.22-.74-.81-.89-1.24-.31-2.6.24-3.62.93l.15.22ZM59.48,12.34c-.06-.23.2-.78,0-.93l-1.04.04.09.79.94.09ZM63.39,15.4v-1.92c0-.05-.1-.18-.17-.21-.22-.1-1.13-.22-1.43-.26-1.59-.2-3.2-.32-4.79-.3-.47,0-1.69-.09-2.06.01-.23.07-.27.74-.28.98-.01.52.1,1.03.16,1.54l.06.09c.41.18.88.05,1.29.05,1.84-.01,3.7.12,5.53.14.42,0,1.02.05,1.41,0,.11-.01.19,0,.25-.11ZM66.64,15.29l-3.4,1.88c-2.36.72-4.85.53-7.27.19-1.77-.25-3.53-.9-4.84-2.14-.06.65.05,1.31.08,1.95,0,.12-.08.26-.07.43,0,.12.1.63.16.69.13.14,1.26.44,1.5.46,2.29.22,5.27.05,7.6,0,1.36-.03,2.71-.12,4.06-.15.44-.01,1.75.16,2-.07.06-.05.1-.11.1-.19l.08-3.06ZM58.82,15.95c-.82.02-1.63-.26-2.44-.07.16.38.22.65,0,1.03l2.58.22c-.32-.34-.47-.8-.15-1.18ZM62.21,15.95c-.78-.18-1.57-.02-2.36,0,.26.25.29.87.04,1.11-.1.09-.27.01-.26.14.82.02,1.65-.04,2.44-.3-.07-.24-.37-.61-.12-.82.1-.08.27-.01.26-.14ZM56.08,16.11c-.87-.24-.58.98-.1.66.27-.18.16-.4.1-.66ZM62.21,16.25c.13.52.55.75.8.17-.12-.66-.48-.06-.8-.17ZM59.13,16.75c.34.29.81-.14.47-.51h-.56c-.01.14,0,.42.09.51Z"/>
      <path d="M68.19,16.47c.76.16,1.55.18,2.33.15.36-.01,1.06-.25.52.41-.42,0-.93-.13-1.33-.12-.21,0-.39.07-.59.08-.15,0-.72-.07-.78,0-.11.12.06.14.09.17.14.13.37.32.53.42.12.08.29.05.34.12.09.12.09.58-.12.55-.08-.01-1.2-.91-1.33-1.04-.06-.05-.49-.58-.49-.62,0-.47.28-.34.5-.47s1.26-.83,1.46-.54c.38.55-1.13.39-1.15.89Z"/>
      <path class="st2" d="M66.64,15.29l-.08,3.06c0,.08-.04.14-.1.19-.25.23-1.56.06-2,.07-1.35.03-2.7.12-4.06.15-2.33.05-5.31.22-7.6,0-.24-.02-1.37-.32-1.5-.46-.06-.07-.16-.58-.16-.69,0-.17.08-.31.07-.43-.03-.64-.14-1.3-.08-1.95,1.31,1.24,3.07,1.89,4.84,2.14,2.42.34,4.91.53,7.27-.19l3.4-1.88Z"/>
      <path class="st2" d="M63.39,15.4c-.06.11-.15.1-.25.11-.39.05-.99,0-1.41,0-1.84-.02-3.7-.15-5.53-.14-.41,0-.88.13-1.29-.05l-.06-.09c-.07-.51-.18-1.02-.16-1.54,0-.24.04-.91.28-.98.36-.11,1.58,0,2.06-.01,1.59-.02,3.2.1,4.79.3.3.04,1.21.16,1.43.26.07.03.17.15.17.21v1.92Z"/>
      <path class="st2" d="M57.27,7.02l-.15-.22c1.02-.69,2.38-1.24,3.62-.93.59.15.63.33.81.89.67,2.02-.7,4.46-2.99,4.25-1.77-.16-3.17-3.06-1.29-3.99ZM61.1,6.73c-.14-.03-.27.01-.39.08-.43.23-1.03.96-1.53,1.28-.15.09-.49.18-.5.2-.09.1,0,.51.19.57.21.07.16-.1.29-.2.48-.36.92-.76,1.39-1.12.33-.26.76-.22.55-.81Z"/>
      <path class="st2" d="M58.82,15.95c-.33.38-.17.84.15,1.18l-2.58-.22c.22-.38.16-.66,0-1.03.81-.19,1.62.1,2.44.07Z"/>
      <path class="st2" d="M62.21,15.95c0,.13-.17.06-.26.14-.26.2.05.58.12.82-.78.25-1.61.31-2.44.3,0-.13.16-.05.26-.14.25-.24.22-.86-.04-1.11.79-.02,1.58-.18,2.36,0Z"/>
      <path class="st2" d="M59.48,12.34l-.94-.09-.09-.79,1.04-.04c.2.15-.07.7,0,.93Z"/>
      <path class="st2" d="M56.08,16.11c.07.26.17.48-.1.66-.48.32-.77-.9.1-.66Z"/>
      <path class="st2" d="M62.21,16.25c.32.11.68-.49.8.17-.25.58-.67.35-.8-.17Z"/>
      <path class="st2" d="M59.13,16.75c-.1-.08-.1-.37-.09-.5h.56c.34.36-.13.79-.47.5Z"/>
      <path d="M61.1,6.73c.21.59-.22.55-.55.81-.47.36-.92.76-1.39,1.12-.13.1-.08.27-.29.2-.19-.06-.28-.47-.19-.57.02-.02.36-.1.5-.2.5-.32,1.09-1.04,1.53-1.28.13-.07.25-.11.39-.08Z"/>
    </g>
  </g>
</svg>